M48
; DRILL file {KiCad 7.0.8} date Mon Nov 20 12:46:54 2023
; FORMAT={-:-/ absolute / metric / decimal}
; #@! TF.CreationDate,2023-11-20T12:46:54-05:00
; #@! TF.GenerationSoftware,Kicad,Pcbnew,7.0.8
; #@! TF.FileFunction,Plated,1,4,PTH
FMAT,2
METRIC
; #@! TA.AperFunction,Plated,PTH,ViaDrill
T1C0.400
; #@! TA.AperFunction,Plated,PTH,ComponentDrill
T2C0.457
; #@! TA.AperFunction,Plated,PTH,ComponentDrill
T3C0.508
; #@! TA.AperFunction,Plated,PTH,ComponentDrill
T4C0.711
; #@! TA.AperFunction,Plated,PTH,ComponentDrill
T5C0.762
; #@! TA.AperFunction,Plated,PTH,ComponentDrill
T6C0.813
; #@! TA.AperFunction,Plated,PTH,ComponentDrill
T7C0.920
; #@! TA.AperFunction,Plated,PTH,ComponentDrill
T8C1.000
; #@! TA.AperFunction,Plated,PTH,ComponentDrill
T9C1.050
; #@! TA.AperFunction,Plated,PTH,ComponentDrill
T10C1.092
; #@! TA.AperFunction,Plated,PTH,ComponentDrill
T11C1.200
; #@! TA.AperFunction,Plated,PTH,ComponentDrill
T12C1.270
; #@! TA.AperFunction,Plated,PTH,ComponentDrill
T13C1.400
; #@! TA.AperFunction,Plated,PTH,ComponentDrill
T14C2.300
%
G90
G05
T1
X60.96Y-99.06
X60.96Y-101.6
X63.5Y-116.84
X66.04Y-111.76
X66.04Y-127.0
X68.58Y-50.8
X68.58Y-106.68
X68.58Y-144.78
X71.12Y-50.8
X73.66Y-50.8
X78.74Y-100.619
X78.74Y-127.0
X81.28Y-111.76
X83.82Y-129.54
X83.82Y-136.179
X88.9Y-118.399
X88.9Y-123.479
X88.9Y-126.019
X88.9Y-133.639
X92.71Y-96.52
X93.98Y-114.3
X96.52Y-110.779
X101.415Y-95.724
X101.6Y-119.38
X101.6Y-124.46
X101.6Y-128.559
X101.6Y-137.16
X101.6Y-142.24
X103.955Y-93.184
X104.14Y-106.68
X104.14Y-110.779
X104.14Y-113.319
X104.14Y-127.0
X104.14Y-139.7
X106.68Y-101.6
X106.68Y-118.399
X106.68Y-126.019
X109.035Y-95.724
X109.035Y-98.264
X109.22Y-115.859
X109.22Y-118.399
X109.22Y-127.0
X109.261Y-99.238
X114.3Y-101.6
X116.655Y-95.724
X116.84Y-83.82
X116.84Y-128.559
X116.84Y-141.259
X119.38Y-131.099
X119.38Y-133.639
X120.939Y-90.459
X121.92Y-96.52
X121.92Y-104.14
X121.92Y-113.319
X121.92Y-115.859
X121.92Y-123.479
X122.46Y-77.759
X124.46Y-126.019
X124.46Y-131.099
X125.362Y-107.327
X127.0Y-114.3
X127.0Y-141.259
X128.27Y-137.16
X129.54Y-109.22
X130.08Y-98.079
X132.08Y-53.34
X132.08Y-55.88
X132.08Y-58.42
X132.08Y-143.799
X139.7Y-88.9
X140.24Y-82.839
X140.24Y-95.539
X144.61Y-135.47
X147.86Y-90.459
X152.4Y-124.46
T2
X78.74Y-134.82
X78.74Y-139.7
T3
X78.74Y-118.399
X81.28Y-118.399
T4
X145.32Y-82.839
X147.327Y-82.839
T5
X81.82Y-123.479
X83.82Y-123.479
T6
X71.12Y-134.62
X71.12Y-139.7
X73.62Y-134.62
X73.62Y-139.7
X91.44Y-108.239
X91.44Y-110.779
X91.44Y-113.319
X91.44Y-115.859
X91.44Y-118.399
X91.44Y-120.939
X91.44Y-123.479
X91.44Y-126.019
X91.44Y-128.559
X91.44Y-131.099
X91.44Y-133.639
X91.44Y-136.179
X91.44Y-138.719
X91.44Y-141.259
X99.695Y-108.239
X99.695Y-110.779
X99.695Y-113.319
X99.695Y-115.859
X99.695Y-118.399
X99.695Y-120.939
X99.695Y-123.479
X99.695Y-126.019
X99.695Y-128.559
X99.695Y-131.099
X99.695Y-133.639
X99.695Y-136.179
X99.695Y-138.719
X99.695Y-141.259
X135.16Y-95.539
X137.16Y-95.539
X152.4Y-93.98
X152.4Y-122.38
T7
X139.74Y-133.679
X139.74Y-135.679
X142.24Y-133.679
X142.24Y-135.679
T8
X80.57Y-100.909
X80.57Y-105.409
X87.07Y-100.909
X87.07Y-105.409
X113.59Y-118.689
X113.59Y-123.189
X120.09Y-118.689
X120.09Y-123.189
T9
X90.19Y-86.885
X92.69Y-86.885
T10
X85.23Y-73.66
X102.73Y-73.66
T11
X90.47Y-55.88
X127.97Y-55.88
T12
X60.96Y-96.52
X63.5Y-114.3
X63.5Y-124.46
X66.04Y-96.52
X68.58Y-114.3
X68.58Y-124.46
X71.12Y-96.52
X73.66Y-114.3
X73.66Y-124.46
X86.36Y-147.32
X91.44Y-147.32
X96.52Y-147.32
X101.6Y-147.32
X109.22Y-134.62
X109.22Y-139.7
X109.22Y-144.78
X109.22Y-149.86
X111.155Y-84.764
X111.155Y-87.314
X111.155Y-89.864
X139.7Y-109.22
X139.7Y-114.3
X139.7Y-119.38
T13
X61.5Y-134.62
X61.5Y-144.255
X66.5Y-134.62
X66.5Y-144.255
X111.235Y-106.989
X111.235Y-111.989
X117.782Y-109.867
X122.782Y-109.867
T14
X134.97Y-138.389
X147.01Y-138.389
T0
M30
