%TF.GenerationSoftware,KiCad,Pcbnew,7.0.8*%
%TF.CreationDate,2023-11-20T12:48:28-05:00*%
%TF.ProjectId,Fufupot,46756675-706f-4742-9e6b-696361645f70,rev?*%
%TF.SameCoordinates,Original*%
%TF.FileFunction,Soldermask,Bot*%
%TF.FilePolarity,Negative*%
%FSLAX46Y46*%
G04 Gerber Fmt 4.6, Leading zero omitted, Abs format (unit mm)*
G04 Created by KiCad (PCBNEW 7.0.8) date 2023-11-20 12:48:28*
%MOMM*%
%LPD*%
G01*
G04 APERTURE LIST*
G04 Aperture macros list*
%AMRoundRect*
0 Rectangle with rounded corners*
0 $1 Rounding radius*
0 $2 $3 $4 $5 $6 $7 $8 $9 X,Y pos of 4 corners*
0 Add a 4 corners polygon primitive as box body*
4,1,4,$2,$3,$4,$5,$6,$7,$8,$9,$2,$3,0*
0 Add four circle primitives for the rounded corners*
1,1,$1+$1,$2,$3*
1,1,$1+$1,$4,$5*
1,1,$1+$1,$6,$7*
1,1,$1+$1,$8,$9*
0 Add four rect primitives between the rounded corners*
20,1,$1+$1,$2,$3,$4,$5,0*
20,1,$1+$1,$4,$5,$6,$7,0*
20,1,$1+$1,$6,$7,$8,$9,0*
20,1,$1+$1,$8,$9,$2,$3,0*%
G04 Aperture macros list end*
%ADD10R,1.800000X1.800000*%
%ADD11C,1.800000*%
%ADD12R,1.219200X1.219200*%
%ADD13C,1.219200*%
%ADD14RoundRect,0.102000X-0.952500X0.952500X-0.952500X-0.952500X0.952500X-0.952500X0.952500X0.952500X0*%
%ADD15C,2.109000*%
%ADD16RoundRect,0.102000X-1.050000X-1.050000X1.050000X-1.050000X1.050000X1.050000X-1.050000X1.050000X0*%
%ADD17C,2.304000*%
%ADD18C,2.032000*%
%ADD19R,1.320800X1.320800*%
%ADD20C,1.320800*%
%ADD21RoundRect,0.102000X-0.787500X-0.787500X0.787500X-0.787500X0.787500X0.787500X-0.787500X0.787500X0*%
%ADD22C,1.779000*%
%ADD23R,1.600200X1.600200*%
%ADD24C,1.600200*%
%ADD25RoundRect,0.102000X0.754000X0.754000X-0.754000X0.754000X-0.754000X-0.754000X0.754000X-0.754000X0*%
%ADD26C,1.712000*%
%ADD27RoundRect,0.102000X-0.754000X-0.754000X0.754000X-0.754000X0.754000X0.754000X-0.754000X0.754000X0*%
%ADD28C,1.270000*%
%ADD29RoundRect,0.102000X1.050000X-1.050000X1.050000X1.050000X-1.050000X1.050000X-1.050000X-1.050000X0*%
%ADD30C,0.965200*%
%ADD31C,1.016000*%
%ADD32C,3.520000*%
%ADD33C,1.632000*%
%ADD34RoundRect,0.102000X-0.714000X-0.714000X0.714000X-0.714000X0.714000X0.714000X-0.714000X0.714000X0*%
G04 APERTURE END LIST*
D10*
%TO.C,C10*%
X90470000Y-55880000D03*
D11*
X127970000Y-55880000D03*
%TD*%
D12*
%TO.C,C9*%
X145320000Y-82839415D03*
D13*
X147326600Y-82839415D03*
%TD*%
D14*
%TO.C,U5*%
X111155000Y-84764415D03*
D15*
X111155000Y-87314415D03*
X111155000Y-89864415D03*
%TD*%
D16*
%TO.C,J7*%
X61500000Y-134620000D03*
D17*
X66500000Y-134620000D03*
%TD*%
D18*
%TO.C,J11*%
X63500000Y-124460000D03*
X68580000Y-124460000D03*
X73660000Y-124460000D03*
%TD*%
D16*
%TO.C,J6*%
X61500000Y-144255000D03*
D17*
X66500000Y-144255000D03*
%TD*%
D19*
%TO.C,C6*%
X71120000Y-139700000D03*
D20*
X73620000Y-139700000D03*
%TD*%
D18*
%TO.C,J3*%
X71120000Y-96520000D03*
X66040000Y-96520000D03*
X60960000Y-96520000D03*
%TD*%
D19*
%TO.C,C5*%
X71120000Y-134620000D03*
D20*
X73620000Y-134620000D03*
%TD*%
D21*
%TO.C,J4*%
X92690000Y-86885000D03*
D22*
X90190000Y-86885000D03*
%TD*%
D16*
%TO.C,J12*%
X117782500Y-109866915D03*
D17*
X122782500Y-109866915D03*
%TD*%
D18*
%TO.C,J8*%
X86360000Y-147320000D03*
X91440000Y-147320000D03*
X96520000Y-147320000D03*
X101600000Y-147320000D03*
%TD*%
D23*
%TO.C,C12*%
X85230000Y-73660000D03*
D24*
X102730000Y-73660000D03*
%TD*%
D19*
%TO.C,R17*%
X152400000Y-93980000D03*
D20*
X152400000Y-122379994D03*
%TD*%
D25*
%TO.C,SW2*%
X120090000Y-123189415D03*
D26*
X113590000Y-123189415D03*
X120090000Y-118689415D03*
X113590000Y-118689415D03*
%TD*%
D18*
%TO.C,J10*%
X63500000Y-114300000D03*
X68580000Y-114300000D03*
X73660000Y-114300000D03*
%TD*%
D27*
%TO.C,SW1*%
X80570000Y-100909415D03*
D26*
X87070000Y-100909415D03*
X80570000Y-105409415D03*
X87070000Y-105409415D03*
%TD*%
D19*
%TO.C,C11*%
X135160000Y-95539415D03*
D20*
X137160000Y-95539415D03*
%TD*%
D28*
%TO.C,C7*%
X83820000Y-123479415D03*
X81820000Y-123479415D03*
%TD*%
D29*
%TO.C,J9*%
X111235000Y-111989415D03*
D17*
X111235000Y-106989415D03*
%TD*%
D30*
%TO.C,16MHz1*%
X78740000Y-139700000D03*
X78740000Y-134819999D03*
%TD*%
D31*
%TO.C,C8*%
X81280000Y-118399415D03*
X78740000Y-118399415D03*
%TD*%
D18*
%TO.C,J13*%
X139700000Y-119380000D03*
X139700000Y-114300000D03*
X139700000Y-109220000D03*
%TD*%
D19*
%TO.C,U4*%
X91440000Y-108239415D03*
D20*
X91440000Y-110779415D03*
X91440000Y-113319415D03*
X91440000Y-115859415D03*
X91440000Y-118399415D03*
X91440000Y-120939415D03*
X91440000Y-123479415D03*
X91440000Y-126019415D03*
X91440000Y-128559415D03*
X91440000Y-131099415D03*
X91440000Y-133639415D03*
X91440000Y-136179415D03*
X91440000Y-138719415D03*
X91440000Y-141259415D03*
X99695000Y-141259415D03*
X99695000Y-138719415D03*
X99695000Y-136179415D03*
X99695000Y-133639415D03*
X99695000Y-131099415D03*
X99695000Y-128559415D03*
X99695000Y-126019415D03*
X99695000Y-123479415D03*
X99695000Y-120939415D03*
X99695000Y-118399415D03*
X99695000Y-115859415D03*
X99695000Y-113319415D03*
X99695000Y-110779415D03*
X99695000Y-108239415D03*
%TD*%
D18*
%TO.C,J1*%
X109220000Y-149860000D03*
X109220000Y-144780000D03*
X109220000Y-139700000D03*
X109220000Y-134620000D03*
%TD*%
D32*
%TO.C,J2*%
X147010000Y-138389415D03*
X134970000Y-138389415D03*
D33*
X142240000Y-135679415D03*
X139740000Y-135679415D03*
X139740000Y-133679415D03*
D34*
X142240000Y-133679415D03*
%TD*%
M02*
