%TF.GenerationSoftware,KiCad,Pcbnew,7.0.8*%
%TF.CreationDate,2023-11-20T12:48:28-05:00*%
%TF.ProjectId,Fufupot,46756675-706f-4742-9e6b-696361645f70,rev?*%
%TF.SameCoordinates,Original*%
%TF.FileFunction,Legend,Top*%
%TF.FilePolarity,Positive*%
%FSLAX46Y46*%
G04 Gerber Fmt 4.6, Leading zero omitted, Abs format (unit mm)*
G04 Created by KiCad (PCBNEW 7.0.8) date 2023-11-20 12:48:28*
%MOMM*%
%LPD*%
G01*
G04 APERTURE LIST*
%ADD10C,0.150000*%
%ADD11C,0.254000*%
%ADD12C,0.100000*%
%ADD13C,0.120000*%
%ADD14C,0.200000*%
%ADD15C,0.152400*%
%ADD16C,0.127000*%
%ADD17C,0.508000*%
G04 APERTURE END LIST*
D10*
X147990112Y-54796009D02*
X147656779Y-54796009D01*
X147656779Y-55319819D02*
X147656779Y-54319819D01*
X147656779Y-54319819D02*
X148132969Y-54319819D01*
X148942493Y-54653152D02*
X148942493Y-55319819D01*
X148513922Y-54653152D02*
X148513922Y-55176961D01*
X148513922Y-55176961D02*
X148561541Y-55272200D01*
X148561541Y-55272200D02*
X148656779Y-55319819D01*
X148656779Y-55319819D02*
X148799636Y-55319819D01*
X148799636Y-55319819D02*
X148894874Y-55272200D01*
X148894874Y-55272200D02*
X148942493Y-55224580D01*
X149752017Y-54796009D02*
X149418684Y-54796009D01*
X149418684Y-55319819D02*
X149418684Y-54319819D01*
X149418684Y-54319819D02*
X149894874Y-54319819D01*
X150704398Y-54653152D02*
X150704398Y-55319819D01*
X150275827Y-54653152D02*
X150275827Y-55176961D01*
X150275827Y-55176961D02*
X150323446Y-55272200D01*
X150323446Y-55272200D02*
X150418684Y-55319819D01*
X150418684Y-55319819D02*
X150561541Y-55319819D01*
X150561541Y-55319819D02*
X150656779Y-55272200D01*
X150656779Y-55272200D02*
X150704398Y-55224580D01*
X151942494Y-55319819D02*
X151942494Y-54319819D01*
X151942494Y-54319819D02*
X152323446Y-54319819D01*
X152323446Y-54319819D02*
X152418684Y-54367438D01*
X152418684Y-54367438D02*
X152466303Y-54415057D01*
X152466303Y-54415057D02*
X152513922Y-54510295D01*
X152513922Y-54510295D02*
X152513922Y-54653152D01*
X152513922Y-54653152D02*
X152466303Y-54748390D01*
X152466303Y-54748390D02*
X152418684Y-54796009D01*
X152418684Y-54796009D02*
X152323446Y-54843628D01*
X152323446Y-54843628D02*
X151942494Y-54843628D01*
X153085351Y-55319819D02*
X152990113Y-55272200D01*
X152990113Y-55272200D02*
X152942494Y-55224580D01*
X152942494Y-55224580D02*
X152894875Y-55129342D01*
X152894875Y-55129342D02*
X152894875Y-54843628D01*
X152894875Y-54843628D02*
X152942494Y-54748390D01*
X152942494Y-54748390D02*
X152990113Y-54700771D01*
X152990113Y-54700771D02*
X153085351Y-54653152D01*
X153085351Y-54653152D02*
X153228208Y-54653152D01*
X153228208Y-54653152D02*
X153323446Y-54700771D01*
X153323446Y-54700771D02*
X153371065Y-54748390D01*
X153371065Y-54748390D02*
X153418684Y-54843628D01*
X153418684Y-54843628D02*
X153418684Y-55129342D01*
X153418684Y-55129342D02*
X153371065Y-55224580D01*
X153371065Y-55224580D02*
X153323446Y-55272200D01*
X153323446Y-55272200D02*
X153228208Y-55319819D01*
X153228208Y-55319819D02*
X153085351Y-55319819D01*
X153704399Y-54653152D02*
X154085351Y-54653152D01*
X153847256Y-54319819D02*
X153847256Y-55176961D01*
X153847256Y-55176961D02*
X153894875Y-55272200D01*
X153894875Y-55272200D02*
X153990113Y-55319819D01*
X153990113Y-55319819D02*
X154085351Y-55319819D01*
X147656779Y-56929819D02*
X147656779Y-55929819D01*
X148228207Y-56929819D02*
X147799636Y-56358390D01*
X148228207Y-55929819D02*
X147656779Y-56501247D01*
X149085350Y-56929819D02*
X149085350Y-56406009D01*
X149085350Y-56406009D02*
X149037731Y-56310771D01*
X149037731Y-56310771D02*
X148942493Y-56263152D01*
X148942493Y-56263152D02*
X148752017Y-56263152D01*
X148752017Y-56263152D02*
X148656779Y-56310771D01*
X149085350Y-56882200D02*
X148990112Y-56929819D01*
X148990112Y-56929819D02*
X148752017Y-56929819D01*
X148752017Y-56929819D02*
X148656779Y-56882200D01*
X148656779Y-56882200D02*
X148609160Y-56786961D01*
X148609160Y-56786961D02*
X148609160Y-56691723D01*
X148609160Y-56691723D02*
X148656779Y-56596485D01*
X148656779Y-56596485D02*
X148752017Y-56548866D01*
X148752017Y-56548866D02*
X148990112Y-56548866D01*
X148990112Y-56548866D02*
X149085350Y-56501247D01*
X149418684Y-56263152D02*
X149799636Y-56263152D01*
X149561541Y-55929819D02*
X149561541Y-56786961D01*
X149561541Y-56786961D02*
X149609160Y-56882200D01*
X149609160Y-56882200D02*
X149704398Y-56929819D01*
X149704398Y-56929819D02*
X149799636Y-56929819D01*
X150132970Y-56929819D02*
X150132970Y-56263152D01*
X150132970Y-55929819D02*
X150085351Y-55977438D01*
X150085351Y-55977438D02*
X150132970Y-56025057D01*
X150132970Y-56025057D02*
X150180589Y-55977438D01*
X150180589Y-55977438D02*
X150132970Y-55929819D01*
X150132970Y-55929819D02*
X150132970Y-56025057D01*
X150990112Y-56882200D02*
X150894874Y-56929819D01*
X150894874Y-56929819D02*
X150704398Y-56929819D01*
X150704398Y-56929819D02*
X150609160Y-56882200D01*
X150609160Y-56882200D02*
X150561541Y-56786961D01*
X150561541Y-56786961D02*
X150561541Y-56406009D01*
X150561541Y-56406009D02*
X150609160Y-56310771D01*
X150609160Y-56310771D02*
X150704398Y-56263152D01*
X150704398Y-56263152D02*
X150894874Y-56263152D01*
X150894874Y-56263152D02*
X150990112Y-56310771D01*
X150990112Y-56310771D02*
X151037731Y-56406009D01*
X151037731Y-56406009D02*
X151037731Y-56501247D01*
X151037731Y-56501247D02*
X150561541Y-56596485D01*
X152228208Y-56929819D02*
X152228208Y-55929819D01*
X152228208Y-55929819D02*
X152466303Y-55929819D01*
X152466303Y-55929819D02*
X152609160Y-55977438D01*
X152609160Y-55977438D02*
X152704398Y-56072676D01*
X152704398Y-56072676D02*
X152752017Y-56167914D01*
X152752017Y-56167914D02*
X152799636Y-56358390D01*
X152799636Y-56358390D02*
X152799636Y-56501247D01*
X152799636Y-56501247D02*
X152752017Y-56691723D01*
X152752017Y-56691723D02*
X152704398Y-56786961D01*
X152704398Y-56786961D02*
X152609160Y-56882200D01*
X152609160Y-56882200D02*
X152466303Y-56929819D01*
X152466303Y-56929819D02*
X152228208Y-56929819D01*
X153609160Y-56882200D02*
X153513922Y-56929819D01*
X153513922Y-56929819D02*
X153323446Y-56929819D01*
X153323446Y-56929819D02*
X153228208Y-56882200D01*
X153228208Y-56882200D02*
X153180589Y-56786961D01*
X153180589Y-56786961D02*
X153180589Y-56406009D01*
X153180589Y-56406009D02*
X153228208Y-56310771D01*
X153228208Y-56310771D02*
X153323446Y-56263152D01*
X153323446Y-56263152D02*
X153513922Y-56263152D01*
X153513922Y-56263152D02*
X153609160Y-56310771D01*
X153609160Y-56310771D02*
X153656779Y-56406009D01*
X153656779Y-56406009D02*
X153656779Y-56501247D01*
X153656779Y-56501247D02*
X153180589Y-56596485D01*
X153990113Y-56263152D02*
X154180589Y-56929819D01*
X154180589Y-56929819D02*
X154371065Y-56453628D01*
X154371065Y-56453628D02*
X154561541Y-56929819D01*
X154561541Y-56929819D02*
X154752017Y-56263152D01*
X155132970Y-56929819D02*
X155132970Y-55929819D01*
X155561541Y-56929819D02*
X155561541Y-56406009D01*
X155561541Y-56406009D02*
X155513922Y-56310771D01*
X155513922Y-56310771D02*
X155418684Y-56263152D01*
X155418684Y-56263152D02*
X155275827Y-56263152D01*
X155275827Y-56263152D02*
X155180589Y-56310771D01*
X155180589Y-56310771D02*
X155132970Y-56358390D01*
X156466303Y-56263152D02*
X156466303Y-56929819D01*
X156037732Y-56263152D02*
X156037732Y-56786961D01*
X156037732Y-56786961D02*
X156085351Y-56882200D01*
X156085351Y-56882200D02*
X156180589Y-56929819D01*
X156180589Y-56929819D02*
X156323446Y-56929819D01*
X156323446Y-56929819D02*
X156418684Y-56882200D01*
X156418684Y-56882200D02*
X156466303Y-56834580D01*
X156942494Y-56929819D02*
X156942494Y-56263152D01*
X156942494Y-56453628D02*
X156990113Y-56358390D01*
X156990113Y-56358390D02*
X157037732Y-56310771D01*
X157037732Y-56310771D02*
X157132970Y-56263152D01*
X157132970Y-56263152D02*
X157228208Y-56263152D01*
X157513923Y-56882200D02*
X157609161Y-56929819D01*
X157609161Y-56929819D02*
X157799637Y-56929819D01*
X157799637Y-56929819D02*
X157894875Y-56882200D01*
X157894875Y-56882200D02*
X157942494Y-56786961D01*
X157942494Y-56786961D02*
X157942494Y-56739342D01*
X157942494Y-56739342D02*
X157894875Y-56644104D01*
X157894875Y-56644104D02*
X157799637Y-56596485D01*
X157799637Y-56596485D02*
X157656780Y-56596485D01*
X157656780Y-56596485D02*
X157561542Y-56548866D01*
X157561542Y-56548866D02*
X157513923Y-56453628D01*
X157513923Y-56453628D02*
X157513923Y-56406009D01*
X157513923Y-56406009D02*
X157561542Y-56310771D01*
X157561542Y-56310771D02*
X157656780Y-56263152D01*
X157656780Y-56263152D02*
X157799637Y-56263152D01*
X157799637Y-56263152D02*
X157894875Y-56310771D01*
X158228209Y-56263152D02*
X158609161Y-56263152D01*
X158371066Y-55929819D02*
X158371066Y-56786961D01*
X158371066Y-56786961D02*
X158418685Y-56882200D01*
X158418685Y-56882200D02*
X158513923Y-56929819D01*
X158513923Y-56929819D02*
X158609161Y-56929819D01*
X148132969Y-58539819D02*
X147656779Y-58539819D01*
X147656779Y-58539819D02*
X147656779Y-57539819D01*
X148894874Y-57873152D02*
X148894874Y-58539819D01*
X148466303Y-57873152D02*
X148466303Y-58396961D01*
X148466303Y-58396961D02*
X148513922Y-58492200D01*
X148513922Y-58492200D02*
X148609160Y-58539819D01*
X148609160Y-58539819D02*
X148752017Y-58539819D01*
X148752017Y-58539819D02*
X148847255Y-58492200D01*
X148847255Y-58492200D02*
X148894874Y-58444580D01*
X149371065Y-58539819D02*
X149371065Y-57873152D01*
X149371065Y-57539819D02*
X149323446Y-57587438D01*
X149323446Y-57587438D02*
X149371065Y-57635057D01*
X149371065Y-57635057D02*
X149418684Y-57587438D01*
X149418684Y-57587438D02*
X149371065Y-57539819D01*
X149371065Y-57539819D02*
X149371065Y-57635057D01*
X149799636Y-58492200D02*
X149894874Y-58539819D01*
X149894874Y-58539819D02*
X150085350Y-58539819D01*
X150085350Y-58539819D02*
X150180588Y-58492200D01*
X150180588Y-58492200D02*
X150228207Y-58396961D01*
X150228207Y-58396961D02*
X150228207Y-58349342D01*
X150228207Y-58349342D02*
X150180588Y-58254104D01*
X150180588Y-58254104D02*
X150085350Y-58206485D01*
X150085350Y-58206485D02*
X149942493Y-58206485D01*
X149942493Y-58206485D02*
X149847255Y-58158866D01*
X149847255Y-58158866D02*
X149799636Y-58063628D01*
X149799636Y-58063628D02*
X149799636Y-58016009D01*
X149799636Y-58016009D02*
X149847255Y-57920771D01*
X149847255Y-57920771D02*
X149942493Y-57873152D01*
X149942493Y-57873152D02*
X150085350Y-57873152D01*
X150085350Y-57873152D02*
X150180588Y-57920771D01*
X151990112Y-58539819D02*
X151656779Y-58063628D01*
X151418684Y-58539819D02*
X151418684Y-57539819D01*
X151418684Y-57539819D02*
X151799636Y-57539819D01*
X151799636Y-57539819D02*
X151894874Y-57587438D01*
X151894874Y-57587438D02*
X151942493Y-57635057D01*
X151942493Y-57635057D02*
X151990112Y-57730295D01*
X151990112Y-57730295D02*
X151990112Y-57873152D01*
X151990112Y-57873152D02*
X151942493Y-57968390D01*
X151942493Y-57968390D02*
X151894874Y-58016009D01*
X151894874Y-58016009D02*
X151799636Y-58063628D01*
X151799636Y-58063628D02*
X151418684Y-58063628D01*
X152561541Y-58539819D02*
X152466303Y-58492200D01*
X152466303Y-58492200D02*
X152418684Y-58444580D01*
X152418684Y-58444580D02*
X152371065Y-58349342D01*
X152371065Y-58349342D02*
X152371065Y-58063628D01*
X152371065Y-58063628D02*
X152418684Y-57968390D01*
X152418684Y-57968390D02*
X152466303Y-57920771D01*
X152466303Y-57920771D02*
X152561541Y-57873152D01*
X152561541Y-57873152D02*
X152704398Y-57873152D01*
X152704398Y-57873152D02*
X152799636Y-57920771D01*
X152799636Y-57920771D02*
X152847255Y-57968390D01*
X152847255Y-57968390D02*
X152894874Y-58063628D01*
X152894874Y-58063628D02*
X152894874Y-58349342D01*
X152894874Y-58349342D02*
X152847255Y-58444580D01*
X152847255Y-58444580D02*
X152799636Y-58492200D01*
X152799636Y-58492200D02*
X152704398Y-58539819D01*
X152704398Y-58539819D02*
X152561541Y-58539819D01*
X153752017Y-58539819D02*
X153752017Y-57539819D01*
X153752017Y-58492200D02*
X153656779Y-58539819D01*
X153656779Y-58539819D02*
X153466303Y-58539819D01*
X153466303Y-58539819D02*
X153371065Y-58492200D01*
X153371065Y-58492200D02*
X153323446Y-58444580D01*
X153323446Y-58444580D02*
X153275827Y-58349342D01*
X153275827Y-58349342D02*
X153275827Y-58063628D01*
X153275827Y-58063628D02*
X153323446Y-57968390D01*
X153323446Y-57968390D02*
X153371065Y-57920771D01*
X153371065Y-57920771D02*
X153466303Y-57873152D01*
X153466303Y-57873152D02*
X153656779Y-57873152D01*
X153656779Y-57873152D02*
X153752017Y-57920771D01*
X154228208Y-58539819D02*
X154228208Y-57873152D01*
X154228208Y-58063628D02*
X154275827Y-57968390D01*
X154275827Y-57968390D02*
X154323446Y-57920771D01*
X154323446Y-57920771D02*
X154418684Y-57873152D01*
X154418684Y-57873152D02*
X154513922Y-57873152D01*
X154847256Y-58539819D02*
X154847256Y-57873152D01*
X154847256Y-57539819D02*
X154799637Y-57587438D01*
X154799637Y-57587438D02*
X154847256Y-57635057D01*
X154847256Y-57635057D02*
X154894875Y-57587438D01*
X154894875Y-57587438D02*
X154847256Y-57539819D01*
X154847256Y-57539819D02*
X154847256Y-57635057D01*
X155752017Y-57873152D02*
X155752017Y-58682676D01*
X155752017Y-58682676D02*
X155704398Y-58777914D01*
X155704398Y-58777914D02*
X155656779Y-58825533D01*
X155656779Y-58825533D02*
X155561541Y-58873152D01*
X155561541Y-58873152D02*
X155418684Y-58873152D01*
X155418684Y-58873152D02*
X155323446Y-58825533D01*
X155752017Y-58492200D02*
X155656779Y-58539819D01*
X155656779Y-58539819D02*
X155466303Y-58539819D01*
X155466303Y-58539819D02*
X155371065Y-58492200D01*
X155371065Y-58492200D02*
X155323446Y-58444580D01*
X155323446Y-58444580D02*
X155275827Y-58349342D01*
X155275827Y-58349342D02*
X155275827Y-58063628D01*
X155275827Y-58063628D02*
X155323446Y-57968390D01*
X155323446Y-57968390D02*
X155371065Y-57920771D01*
X155371065Y-57920771D02*
X155466303Y-57873152D01*
X155466303Y-57873152D02*
X155656779Y-57873152D01*
X155656779Y-57873152D02*
X155752017Y-57920771D01*
X156656779Y-57873152D02*
X156656779Y-58539819D01*
X156228208Y-57873152D02*
X156228208Y-58396961D01*
X156228208Y-58396961D02*
X156275827Y-58492200D01*
X156275827Y-58492200D02*
X156371065Y-58539819D01*
X156371065Y-58539819D02*
X156513922Y-58539819D01*
X156513922Y-58539819D02*
X156609160Y-58492200D01*
X156609160Y-58492200D02*
X156656779Y-58444580D01*
X157513922Y-58492200D02*
X157418684Y-58539819D01*
X157418684Y-58539819D02*
X157228208Y-58539819D01*
X157228208Y-58539819D02*
X157132970Y-58492200D01*
X157132970Y-58492200D02*
X157085351Y-58396961D01*
X157085351Y-58396961D02*
X157085351Y-58016009D01*
X157085351Y-58016009D02*
X157132970Y-57920771D01*
X157132970Y-57920771D02*
X157228208Y-57873152D01*
X157228208Y-57873152D02*
X157418684Y-57873152D01*
X157418684Y-57873152D02*
X157513922Y-57920771D01*
X157513922Y-57920771D02*
X157561541Y-58016009D01*
X157561541Y-58016009D02*
X157561541Y-58111247D01*
X157561541Y-58111247D02*
X157085351Y-58206485D01*
X157894875Y-57873152D02*
X158418684Y-57873152D01*
X158418684Y-57873152D02*
X157894875Y-58539819D01*
X157894875Y-58539819D02*
X158418684Y-58539819D01*
X147656779Y-59626009D02*
X147990112Y-59626009D01*
X148132969Y-60149819D02*
X147656779Y-60149819D01*
X147656779Y-60149819D02*
X147656779Y-59149819D01*
X147656779Y-59149819D02*
X148132969Y-59149819D01*
X148704398Y-60149819D02*
X148609160Y-60102200D01*
X148609160Y-60102200D02*
X148561541Y-60006961D01*
X148561541Y-60006961D02*
X148561541Y-59149819D01*
X149085351Y-60149819D02*
X149085351Y-59483152D01*
X149085351Y-59149819D02*
X149037732Y-59197438D01*
X149037732Y-59197438D02*
X149085351Y-59245057D01*
X149085351Y-59245057D02*
X149132970Y-59197438D01*
X149132970Y-59197438D02*
X149085351Y-59149819D01*
X149085351Y-59149819D02*
X149085351Y-59245057D01*
X149513922Y-60102200D02*
X149609160Y-60149819D01*
X149609160Y-60149819D02*
X149799636Y-60149819D01*
X149799636Y-60149819D02*
X149894874Y-60102200D01*
X149894874Y-60102200D02*
X149942493Y-60006961D01*
X149942493Y-60006961D02*
X149942493Y-59959342D01*
X149942493Y-59959342D02*
X149894874Y-59864104D01*
X149894874Y-59864104D02*
X149799636Y-59816485D01*
X149799636Y-59816485D02*
X149656779Y-59816485D01*
X149656779Y-59816485D02*
X149561541Y-59768866D01*
X149561541Y-59768866D02*
X149513922Y-59673628D01*
X149513922Y-59673628D02*
X149513922Y-59626009D01*
X149513922Y-59626009D02*
X149561541Y-59530771D01*
X149561541Y-59530771D02*
X149656779Y-59483152D01*
X149656779Y-59483152D02*
X149799636Y-59483152D01*
X149799636Y-59483152D02*
X149894874Y-59530771D01*
X150752017Y-60102200D02*
X150656779Y-60149819D01*
X150656779Y-60149819D02*
X150466303Y-60149819D01*
X150466303Y-60149819D02*
X150371065Y-60102200D01*
X150371065Y-60102200D02*
X150323446Y-60006961D01*
X150323446Y-60006961D02*
X150323446Y-59626009D01*
X150323446Y-59626009D02*
X150371065Y-59530771D01*
X150371065Y-59530771D02*
X150466303Y-59483152D01*
X150466303Y-59483152D02*
X150656779Y-59483152D01*
X150656779Y-59483152D02*
X150752017Y-59530771D01*
X150752017Y-59530771D02*
X150799636Y-59626009D01*
X150799636Y-59626009D02*
X150799636Y-59721247D01*
X150799636Y-59721247D02*
X150323446Y-59816485D01*
X152561541Y-60054580D02*
X152513922Y-60102200D01*
X152513922Y-60102200D02*
X152371065Y-60149819D01*
X152371065Y-60149819D02*
X152275827Y-60149819D01*
X152275827Y-60149819D02*
X152132970Y-60102200D01*
X152132970Y-60102200D02*
X152037732Y-60006961D01*
X152037732Y-60006961D02*
X151990113Y-59911723D01*
X151990113Y-59911723D02*
X151942494Y-59721247D01*
X151942494Y-59721247D02*
X151942494Y-59578390D01*
X151942494Y-59578390D02*
X151990113Y-59387914D01*
X151990113Y-59387914D02*
X152037732Y-59292676D01*
X152037732Y-59292676D02*
X152132970Y-59197438D01*
X152132970Y-59197438D02*
X152275827Y-59149819D01*
X152275827Y-59149819D02*
X152371065Y-59149819D01*
X152371065Y-59149819D02*
X152513922Y-59197438D01*
X152513922Y-59197438D02*
X152561541Y-59245057D01*
X153132970Y-60149819D02*
X153037732Y-60102200D01*
X153037732Y-60102200D02*
X152990113Y-60054580D01*
X152990113Y-60054580D02*
X152942494Y-59959342D01*
X152942494Y-59959342D02*
X152942494Y-59673628D01*
X152942494Y-59673628D02*
X152990113Y-59578390D01*
X152990113Y-59578390D02*
X153037732Y-59530771D01*
X153037732Y-59530771D02*
X153132970Y-59483152D01*
X153132970Y-59483152D02*
X153275827Y-59483152D01*
X153275827Y-59483152D02*
X153371065Y-59530771D01*
X153371065Y-59530771D02*
X153418684Y-59578390D01*
X153418684Y-59578390D02*
X153466303Y-59673628D01*
X153466303Y-59673628D02*
X153466303Y-59959342D01*
X153466303Y-59959342D02*
X153418684Y-60054580D01*
X153418684Y-60054580D02*
X153371065Y-60102200D01*
X153371065Y-60102200D02*
X153275827Y-60149819D01*
X153275827Y-60149819D02*
X153132970Y-60149819D01*
X154037732Y-60149819D02*
X153942494Y-60102200D01*
X153942494Y-60102200D02*
X153894875Y-60054580D01*
X153894875Y-60054580D02*
X153847256Y-59959342D01*
X153847256Y-59959342D02*
X153847256Y-59673628D01*
X153847256Y-59673628D02*
X153894875Y-59578390D01*
X153894875Y-59578390D02*
X153942494Y-59530771D01*
X153942494Y-59530771D02*
X154037732Y-59483152D01*
X154037732Y-59483152D02*
X154180589Y-59483152D01*
X154180589Y-59483152D02*
X154275827Y-59530771D01*
X154275827Y-59530771D02*
X154323446Y-59578390D01*
X154323446Y-59578390D02*
X154371065Y-59673628D01*
X154371065Y-59673628D02*
X154371065Y-59959342D01*
X154371065Y-59959342D02*
X154323446Y-60054580D01*
X154323446Y-60054580D02*
X154275827Y-60102200D01*
X154275827Y-60102200D02*
X154180589Y-60149819D01*
X154180589Y-60149819D02*
X154037732Y-60149819D01*
X154799637Y-60149819D02*
X154799637Y-59149819D01*
X154894875Y-59768866D02*
X155180589Y-60149819D01*
X155180589Y-59483152D02*
X154799637Y-59864104D01*
X155990113Y-60102200D02*
X155894875Y-60149819D01*
X155894875Y-60149819D02*
X155704399Y-60149819D01*
X155704399Y-60149819D02*
X155609161Y-60102200D01*
X155609161Y-60102200D02*
X155561542Y-60006961D01*
X155561542Y-60006961D02*
X155561542Y-59626009D01*
X155561542Y-59626009D02*
X155609161Y-59530771D01*
X155609161Y-59530771D02*
X155704399Y-59483152D01*
X155704399Y-59483152D02*
X155894875Y-59483152D01*
X155894875Y-59483152D02*
X155990113Y-59530771D01*
X155990113Y-59530771D02*
X156037732Y-59626009D01*
X156037732Y-59626009D02*
X156037732Y-59721247D01*
X156037732Y-59721247D02*
X155561542Y-59816485D01*
X148228207Y-61664580D02*
X148180588Y-61712200D01*
X148180588Y-61712200D02*
X148037731Y-61759819D01*
X148037731Y-61759819D02*
X147942493Y-61759819D01*
X147942493Y-61759819D02*
X147799636Y-61712200D01*
X147799636Y-61712200D02*
X147704398Y-61616961D01*
X147704398Y-61616961D02*
X147656779Y-61521723D01*
X147656779Y-61521723D02*
X147609160Y-61331247D01*
X147609160Y-61331247D02*
X147609160Y-61188390D01*
X147609160Y-61188390D02*
X147656779Y-60997914D01*
X147656779Y-60997914D02*
X147704398Y-60902676D01*
X147704398Y-60902676D02*
X147799636Y-60807438D01*
X147799636Y-60807438D02*
X147942493Y-60759819D01*
X147942493Y-60759819D02*
X148037731Y-60759819D01*
X148037731Y-60759819D02*
X148180588Y-60807438D01*
X148180588Y-60807438D02*
X148228207Y-60855057D01*
X149085350Y-61759819D02*
X149085350Y-61236009D01*
X149085350Y-61236009D02*
X149037731Y-61140771D01*
X149037731Y-61140771D02*
X148942493Y-61093152D01*
X148942493Y-61093152D02*
X148752017Y-61093152D01*
X148752017Y-61093152D02*
X148656779Y-61140771D01*
X149085350Y-61712200D02*
X148990112Y-61759819D01*
X148990112Y-61759819D02*
X148752017Y-61759819D01*
X148752017Y-61759819D02*
X148656779Y-61712200D01*
X148656779Y-61712200D02*
X148609160Y-61616961D01*
X148609160Y-61616961D02*
X148609160Y-61521723D01*
X148609160Y-61521723D02*
X148656779Y-61426485D01*
X148656779Y-61426485D02*
X148752017Y-61378866D01*
X148752017Y-61378866D02*
X148990112Y-61378866D01*
X148990112Y-61378866D02*
X149085350Y-61331247D01*
X149418684Y-61093152D02*
X149799636Y-61093152D01*
X149561541Y-60759819D02*
X149561541Y-61616961D01*
X149561541Y-61616961D02*
X149609160Y-61712200D01*
X149609160Y-61712200D02*
X149704398Y-61759819D01*
X149704398Y-61759819D02*
X149799636Y-61759819D01*
X150894875Y-61759819D02*
X150894875Y-60759819D01*
X150894875Y-60759819D02*
X151228208Y-61474104D01*
X151228208Y-61474104D02*
X151561541Y-60759819D01*
X151561541Y-60759819D02*
X151561541Y-61759819D01*
X152418684Y-61712200D02*
X152323446Y-61759819D01*
X152323446Y-61759819D02*
X152132970Y-61759819D01*
X152132970Y-61759819D02*
X152037732Y-61712200D01*
X152037732Y-61712200D02*
X151990113Y-61616961D01*
X151990113Y-61616961D02*
X151990113Y-61236009D01*
X151990113Y-61236009D02*
X152037732Y-61140771D01*
X152037732Y-61140771D02*
X152132970Y-61093152D01*
X152132970Y-61093152D02*
X152323446Y-61093152D01*
X152323446Y-61093152D02*
X152418684Y-61140771D01*
X152418684Y-61140771D02*
X152466303Y-61236009D01*
X152466303Y-61236009D02*
X152466303Y-61331247D01*
X152466303Y-61331247D02*
X151990113Y-61426485D01*
X152894875Y-61093152D02*
X152894875Y-61759819D01*
X152894875Y-61188390D02*
X152942494Y-61140771D01*
X152942494Y-61140771D02*
X153037732Y-61093152D01*
X153037732Y-61093152D02*
X153180589Y-61093152D01*
X153180589Y-61093152D02*
X153275827Y-61140771D01*
X153275827Y-61140771D02*
X153323446Y-61236009D01*
X153323446Y-61236009D02*
X153323446Y-61759819D01*
X153656780Y-61093152D02*
X154037732Y-61093152D01*
X153799637Y-60759819D02*
X153799637Y-61616961D01*
X153799637Y-61616961D02*
X153847256Y-61712200D01*
X153847256Y-61712200D02*
X153942494Y-61759819D01*
X153942494Y-61759819D02*
X154037732Y-61759819D01*
X154752018Y-61712200D02*
X154656780Y-61759819D01*
X154656780Y-61759819D02*
X154466304Y-61759819D01*
X154466304Y-61759819D02*
X154371066Y-61712200D01*
X154371066Y-61712200D02*
X154323447Y-61616961D01*
X154323447Y-61616961D02*
X154323447Y-61236009D01*
X154323447Y-61236009D02*
X154371066Y-61140771D01*
X154371066Y-61140771D02*
X154466304Y-61093152D01*
X154466304Y-61093152D02*
X154656780Y-61093152D01*
X154656780Y-61093152D02*
X154752018Y-61140771D01*
X154752018Y-61140771D02*
X154799637Y-61236009D01*
X154799637Y-61236009D02*
X154799637Y-61331247D01*
X154799637Y-61331247D02*
X154323447Y-61426485D01*
X155228209Y-61093152D02*
X155228209Y-61759819D01*
X155228209Y-61188390D02*
X155275828Y-61140771D01*
X155275828Y-61140771D02*
X155371066Y-61093152D01*
X155371066Y-61093152D02*
X155513923Y-61093152D01*
X155513923Y-61093152D02*
X155609161Y-61140771D01*
X155609161Y-61140771D02*
X155656780Y-61236009D01*
X155656780Y-61236009D02*
X155656780Y-61759819D01*
X147513922Y-62369819D02*
X147847255Y-63369819D01*
X147847255Y-63369819D02*
X148180588Y-62369819D01*
X148894874Y-63322200D02*
X148799636Y-63369819D01*
X148799636Y-63369819D02*
X148609160Y-63369819D01*
X148609160Y-63369819D02*
X148513922Y-63322200D01*
X148513922Y-63322200D02*
X148466303Y-63226961D01*
X148466303Y-63226961D02*
X148466303Y-62846009D01*
X148466303Y-62846009D02*
X148513922Y-62750771D01*
X148513922Y-62750771D02*
X148609160Y-62703152D01*
X148609160Y-62703152D02*
X148799636Y-62703152D01*
X148799636Y-62703152D02*
X148894874Y-62750771D01*
X148894874Y-62750771D02*
X148942493Y-62846009D01*
X148942493Y-62846009D02*
X148942493Y-62941247D01*
X148942493Y-62941247D02*
X148466303Y-63036485D01*
X149371065Y-63369819D02*
X149371065Y-62703152D01*
X149371065Y-62893628D02*
X149418684Y-62798390D01*
X149418684Y-62798390D02*
X149466303Y-62750771D01*
X149466303Y-62750771D02*
X149561541Y-62703152D01*
X149561541Y-62703152D02*
X149656779Y-62703152D01*
X149942494Y-63322200D02*
X150037732Y-63369819D01*
X150037732Y-63369819D02*
X150228208Y-63369819D01*
X150228208Y-63369819D02*
X150323446Y-63322200D01*
X150323446Y-63322200D02*
X150371065Y-63226961D01*
X150371065Y-63226961D02*
X150371065Y-63179342D01*
X150371065Y-63179342D02*
X150323446Y-63084104D01*
X150323446Y-63084104D02*
X150228208Y-63036485D01*
X150228208Y-63036485D02*
X150085351Y-63036485D01*
X150085351Y-63036485D02*
X149990113Y-62988866D01*
X149990113Y-62988866D02*
X149942494Y-62893628D01*
X149942494Y-62893628D02*
X149942494Y-62846009D01*
X149942494Y-62846009D02*
X149990113Y-62750771D01*
X149990113Y-62750771D02*
X150085351Y-62703152D01*
X150085351Y-62703152D02*
X150228208Y-62703152D01*
X150228208Y-62703152D02*
X150323446Y-62750771D01*
X150799637Y-63369819D02*
X150799637Y-62703152D01*
X150799637Y-62369819D02*
X150752018Y-62417438D01*
X150752018Y-62417438D02*
X150799637Y-62465057D01*
X150799637Y-62465057D02*
X150847256Y-62417438D01*
X150847256Y-62417438D02*
X150799637Y-62369819D01*
X150799637Y-62369819D02*
X150799637Y-62465057D01*
X151418684Y-63369819D02*
X151323446Y-63322200D01*
X151323446Y-63322200D02*
X151275827Y-63274580D01*
X151275827Y-63274580D02*
X151228208Y-63179342D01*
X151228208Y-63179342D02*
X151228208Y-62893628D01*
X151228208Y-62893628D02*
X151275827Y-62798390D01*
X151275827Y-62798390D02*
X151323446Y-62750771D01*
X151323446Y-62750771D02*
X151418684Y-62703152D01*
X151418684Y-62703152D02*
X151561541Y-62703152D01*
X151561541Y-62703152D02*
X151656779Y-62750771D01*
X151656779Y-62750771D02*
X151704398Y-62798390D01*
X151704398Y-62798390D02*
X151752017Y-62893628D01*
X151752017Y-62893628D02*
X151752017Y-63179342D01*
X151752017Y-63179342D02*
X151704398Y-63274580D01*
X151704398Y-63274580D02*
X151656779Y-63322200D01*
X151656779Y-63322200D02*
X151561541Y-63369819D01*
X151561541Y-63369819D02*
X151418684Y-63369819D01*
X152180589Y-62703152D02*
X152180589Y-63369819D01*
X152180589Y-62798390D02*
X152228208Y-62750771D01*
X152228208Y-62750771D02*
X152323446Y-62703152D01*
X152323446Y-62703152D02*
X152466303Y-62703152D01*
X152466303Y-62703152D02*
X152561541Y-62750771D01*
X152561541Y-62750771D02*
X152609160Y-62846009D01*
X152609160Y-62846009D02*
X152609160Y-63369819D01*
X154371065Y-63369819D02*
X153799637Y-63369819D01*
X154085351Y-63369819D02*
X154085351Y-62369819D01*
X154085351Y-62369819D02*
X153990113Y-62512676D01*
X153990113Y-62512676D02*
X153894875Y-62607914D01*
X153894875Y-62607914D02*
X153799637Y-62655533D01*
X139708095Y-100326819D02*
X140279523Y-100326819D01*
X139993809Y-101326819D02*
X139993809Y-100326819D01*
X140612857Y-101326819D02*
X140612857Y-100326819D01*
X140612857Y-100326819D02*
X140993809Y-100326819D01*
X140993809Y-100326819D02*
X141089047Y-100374438D01*
X141089047Y-100374438D02*
X141136666Y-100422057D01*
X141136666Y-100422057D02*
X141184285Y-100517295D01*
X141184285Y-100517295D02*
X141184285Y-100660152D01*
X141184285Y-100660152D02*
X141136666Y-100755390D01*
X141136666Y-100755390D02*
X141089047Y-100803009D01*
X141089047Y-100803009D02*
X140993809Y-100850628D01*
X140993809Y-100850628D02*
X140612857Y-100850628D01*
X142041428Y-100326819D02*
X141850952Y-100326819D01*
X141850952Y-100326819D02*
X141755714Y-100374438D01*
X141755714Y-100374438D02*
X141708095Y-100422057D01*
X141708095Y-100422057D02*
X141612857Y-100564914D01*
X141612857Y-100564914D02*
X141565238Y-100755390D01*
X141565238Y-100755390D02*
X141565238Y-101136342D01*
X141565238Y-101136342D02*
X141612857Y-101231580D01*
X141612857Y-101231580D02*
X141660476Y-101279200D01*
X141660476Y-101279200D02*
X141755714Y-101326819D01*
X141755714Y-101326819D02*
X141946190Y-101326819D01*
X141946190Y-101326819D02*
X142041428Y-101279200D01*
X142041428Y-101279200D02*
X142089047Y-101231580D01*
X142089047Y-101231580D02*
X142136666Y-101136342D01*
X142136666Y-101136342D02*
X142136666Y-100898247D01*
X142136666Y-100898247D02*
X142089047Y-100803009D01*
X142089047Y-100803009D02*
X142041428Y-100755390D01*
X142041428Y-100755390D02*
X141946190Y-100707771D01*
X141946190Y-100707771D02*
X141755714Y-100707771D01*
X141755714Y-100707771D02*
X141660476Y-100755390D01*
X141660476Y-100755390D02*
X141612857Y-100803009D01*
X141612857Y-100803009D02*
X141565238Y-100898247D01*
X76208095Y-148586819D02*
X76779523Y-148586819D01*
X76493809Y-149586819D02*
X76493809Y-148586819D01*
X77112857Y-149586819D02*
X77112857Y-148586819D01*
X77112857Y-148586819D02*
X77493809Y-148586819D01*
X77493809Y-148586819D02*
X77589047Y-148634438D01*
X77589047Y-148634438D02*
X77636666Y-148682057D01*
X77636666Y-148682057D02*
X77684285Y-148777295D01*
X77684285Y-148777295D02*
X77684285Y-148920152D01*
X77684285Y-148920152D02*
X77636666Y-149015390D01*
X77636666Y-149015390D02*
X77589047Y-149063009D01*
X77589047Y-149063009D02*
X77493809Y-149110628D01*
X77493809Y-149110628D02*
X77112857Y-149110628D01*
X78589047Y-148586819D02*
X78112857Y-148586819D01*
X78112857Y-148586819D02*
X78065238Y-149063009D01*
X78065238Y-149063009D02*
X78112857Y-149015390D01*
X78112857Y-149015390D02*
X78208095Y-148967771D01*
X78208095Y-148967771D02*
X78446190Y-148967771D01*
X78446190Y-148967771D02*
X78541428Y-149015390D01*
X78541428Y-149015390D02*
X78589047Y-149063009D01*
X78589047Y-149063009D02*
X78636666Y-149158247D01*
X78636666Y-149158247D02*
X78636666Y-149396342D01*
X78636666Y-149396342D02*
X78589047Y-149491580D01*
X78589047Y-149491580D02*
X78541428Y-149539200D01*
X78541428Y-149539200D02*
X78446190Y-149586819D01*
X78446190Y-149586819D02*
X78208095Y-149586819D01*
X78208095Y-149586819D02*
X78112857Y-149539200D01*
X78112857Y-149539200D02*
X78065238Y-149491580D01*
X88908095Y-152396819D02*
X89479523Y-152396819D01*
X89193809Y-153396819D02*
X89193809Y-152396819D01*
X89812857Y-153396819D02*
X89812857Y-152396819D01*
X89812857Y-152396819D02*
X90193809Y-152396819D01*
X90193809Y-152396819D02*
X90289047Y-152444438D01*
X90289047Y-152444438D02*
X90336666Y-152492057D01*
X90336666Y-152492057D02*
X90384285Y-152587295D01*
X90384285Y-152587295D02*
X90384285Y-152730152D01*
X90384285Y-152730152D02*
X90336666Y-152825390D01*
X90336666Y-152825390D02*
X90289047Y-152873009D01*
X90289047Y-152873009D02*
X90193809Y-152920628D01*
X90193809Y-152920628D02*
X89812857Y-152920628D01*
X91241428Y-152730152D02*
X91241428Y-153396819D01*
X91003333Y-152349200D02*
X90765238Y-153063485D01*
X90765238Y-153063485D02*
X91384285Y-153063485D01*
X93988095Y-93976819D02*
X94559523Y-93976819D01*
X94273809Y-94976819D02*
X94273809Y-93976819D01*
X94892857Y-94976819D02*
X94892857Y-93976819D01*
X94892857Y-93976819D02*
X95273809Y-93976819D01*
X95273809Y-93976819D02*
X95369047Y-94024438D01*
X95369047Y-94024438D02*
X95416666Y-94072057D01*
X95416666Y-94072057D02*
X95464285Y-94167295D01*
X95464285Y-94167295D02*
X95464285Y-94310152D01*
X95464285Y-94310152D02*
X95416666Y-94405390D01*
X95416666Y-94405390D02*
X95369047Y-94453009D01*
X95369047Y-94453009D02*
X95273809Y-94500628D01*
X95273809Y-94500628D02*
X94892857Y-94500628D01*
X95845238Y-94072057D02*
X95892857Y-94024438D01*
X95892857Y-94024438D02*
X95988095Y-93976819D01*
X95988095Y-93976819D02*
X96226190Y-93976819D01*
X96226190Y-93976819D02*
X96321428Y-94024438D01*
X96321428Y-94024438D02*
X96369047Y-94072057D01*
X96369047Y-94072057D02*
X96416666Y-94167295D01*
X96416666Y-94167295D02*
X96416666Y-94262533D01*
X96416666Y-94262533D02*
X96369047Y-94405390D01*
X96369047Y-94405390D02*
X95797619Y-94976819D01*
X95797619Y-94976819D02*
X96416666Y-94976819D01*
X82558095Y-109216819D02*
X83129523Y-109216819D01*
X82843809Y-110216819D02*
X82843809Y-109216819D01*
X83462857Y-110216819D02*
X83462857Y-109216819D01*
X83462857Y-109216819D02*
X83843809Y-109216819D01*
X83843809Y-109216819D02*
X83939047Y-109264438D01*
X83939047Y-109264438D02*
X83986666Y-109312057D01*
X83986666Y-109312057D02*
X84034285Y-109407295D01*
X84034285Y-109407295D02*
X84034285Y-109550152D01*
X84034285Y-109550152D02*
X83986666Y-109645390D01*
X83986666Y-109645390D02*
X83939047Y-109693009D01*
X83939047Y-109693009D02*
X83843809Y-109740628D01*
X83843809Y-109740628D02*
X83462857Y-109740628D01*
X84986666Y-110216819D02*
X84415238Y-110216819D01*
X84700952Y-110216819D02*
X84700952Y-109216819D01*
X84700952Y-109216819D02*
X84605714Y-109359676D01*
X84605714Y-109359676D02*
X84510476Y-109454914D01*
X84510476Y-109454914D02*
X84415238Y-109502533D01*
X128278095Y-99056819D02*
X128849523Y-99056819D01*
X128563809Y-100056819D02*
X128563809Y-99056819D01*
X129182857Y-100056819D02*
X129182857Y-99056819D01*
X129182857Y-99056819D02*
X129563809Y-99056819D01*
X129563809Y-99056819D02*
X129659047Y-99104438D01*
X129659047Y-99104438D02*
X129706666Y-99152057D01*
X129706666Y-99152057D02*
X129754285Y-99247295D01*
X129754285Y-99247295D02*
X129754285Y-99390152D01*
X129754285Y-99390152D02*
X129706666Y-99485390D01*
X129706666Y-99485390D02*
X129659047Y-99533009D01*
X129659047Y-99533009D02*
X129563809Y-99580628D01*
X129563809Y-99580628D02*
X129182857Y-99580628D01*
X130087619Y-99056819D02*
X130706666Y-99056819D01*
X130706666Y-99056819D02*
X130373333Y-99437771D01*
X130373333Y-99437771D02*
X130516190Y-99437771D01*
X130516190Y-99437771D02*
X130611428Y-99485390D01*
X130611428Y-99485390D02*
X130659047Y-99533009D01*
X130659047Y-99533009D02*
X130706666Y-99628247D01*
X130706666Y-99628247D02*
X130706666Y-99866342D01*
X130706666Y-99866342D02*
X130659047Y-99961580D01*
X130659047Y-99961580D02*
X130611428Y-100009200D01*
X130611428Y-100009200D02*
X130516190Y-100056819D01*
X130516190Y-100056819D02*
X130230476Y-100056819D01*
X130230476Y-100056819D02*
X130135238Y-100009200D01*
X130135238Y-100009200D02*
X130087619Y-99961580D01*
X115123095Y-94659234D02*
X115123095Y-95468757D01*
X115123095Y-95468757D02*
X115170714Y-95563995D01*
X115170714Y-95563995D02*
X115218333Y-95611615D01*
X115218333Y-95611615D02*
X115313571Y-95659234D01*
X115313571Y-95659234D02*
X115504047Y-95659234D01*
X115504047Y-95659234D02*
X115599285Y-95611615D01*
X115599285Y-95611615D02*
X115646904Y-95563995D01*
X115646904Y-95563995D02*
X115694523Y-95468757D01*
X115694523Y-95468757D02*
X115694523Y-94659234D01*
X116123095Y-94754472D02*
X116170714Y-94706853D01*
X116170714Y-94706853D02*
X116265952Y-94659234D01*
X116265952Y-94659234D02*
X116504047Y-94659234D01*
X116504047Y-94659234D02*
X116599285Y-94706853D01*
X116599285Y-94706853D02*
X116646904Y-94754472D01*
X116646904Y-94754472D02*
X116694523Y-94849710D01*
X116694523Y-94849710D02*
X116694523Y-94944948D01*
X116694523Y-94944948D02*
X116646904Y-95087805D01*
X116646904Y-95087805D02*
X116075476Y-95659234D01*
X116075476Y-95659234D02*
X116694523Y-95659234D01*
X115165714Y-89354819D02*
X115165714Y-88354819D01*
X115165714Y-88354819D02*
X115403809Y-88354819D01*
X115403809Y-88354819D02*
X115546666Y-88402438D01*
X115546666Y-88402438D02*
X115641904Y-88497676D01*
X115641904Y-88497676D02*
X115689523Y-88592914D01*
X115689523Y-88592914D02*
X115737142Y-88783390D01*
X115737142Y-88783390D02*
X115737142Y-88926247D01*
X115737142Y-88926247D02*
X115689523Y-89116723D01*
X115689523Y-89116723D02*
X115641904Y-89211961D01*
X115641904Y-89211961D02*
X115546666Y-89307200D01*
X115546666Y-89307200D02*
X115403809Y-89354819D01*
X115403809Y-89354819D02*
X115165714Y-89354819D01*
X116546666Y-89307200D02*
X116451428Y-89354819D01*
X116451428Y-89354819D02*
X116260952Y-89354819D01*
X116260952Y-89354819D02*
X116165714Y-89307200D01*
X116165714Y-89307200D02*
X116118095Y-89211961D01*
X116118095Y-89211961D02*
X116118095Y-88831009D01*
X116118095Y-88831009D02*
X116165714Y-88735771D01*
X116165714Y-88735771D02*
X116260952Y-88688152D01*
X116260952Y-88688152D02*
X116451428Y-88688152D01*
X116451428Y-88688152D02*
X116546666Y-88735771D01*
X116546666Y-88735771D02*
X116594285Y-88831009D01*
X116594285Y-88831009D02*
X116594285Y-88926247D01*
X116594285Y-88926247D02*
X116118095Y-89021485D01*
X116975238Y-89307200D02*
X117070476Y-89354819D01*
X117070476Y-89354819D02*
X117260952Y-89354819D01*
X117260952Y-89354819D02*
X117356190Y-89307200D01*
X117356190Y-89307200D02*
X117403809Y-89211961D01*
X117403809Y-89211961D02*
X117403809Y-89164342D01*
X117403809Y-89164342D02*
X117356190Y-89069104D01*
X117356190Y-89069104D02*
X117260952Y-89021485D01*
X117260952Y-89021485D02*
X117118095Y-89021485D01*
X117118095Y-89021485D02*
X117022857Y-88973866D01*
X117022857Y-88973866D02*
X116975238Y-88878628D01*
X116975238Y-88878628D02*
X116975238Y-88831009D01*
X116975238Y-88831009D02*
X117022857Y-88735771D01*
X117022857Y-88735771D02*
X117118095Y-88688152D01*
X117118095Y-88688152D02*
X117260952Y-88688152D01*
X117260952Y-88688152D02*
X117356190Y-88735771D01*
X117832381Y-89354819D02*
X117832381Y-88688152D01*
X117832381Y-88354819D02*
X117784762Y-88402438D01*
X117784762Y-88402438D02*
X117832381Y-88450057D01*
X117832381Y-88450057D02*
X117880000Y-88402438D01*
X117880000Y-88402438D02*
X117832381Y-88354819D01*
X117832381Y-88354819D02*
X117832381Y-88450057D01*
X118737142Y-88688152D02*
X118737142Y-89497676D01*
X118737142Y-89497676D02*
X118689523Y-89592914D01*
X118689523Y-89592914D02*
X118641904Y-89640533D01*
X118641904Y-89640533D02*
X118546666Y-89688152D01*
X118546666Y-89688152D02*
X118403809Y-89688152D01*
X118403809Y-89688152D02*
X118308571Y-89640533D01*
X118737142Y-89307200D02*
X118641904Y-89354819D01*
X118641904Y-89354819D02*
X118451428Y-89354819D01*
X118451428Y-89354819D02*
X118356190Y-89307200D01*
X118356190Y-89307200D02*
X118308571Y-89259580D01*
X118308571Y-89259580D02*
X118260952Y-89164342D01*
X118260952Y-89164342D02*
X118260952Y-88878628D01*
X118260952Y-88878628D02*
X118308571Y-88783390D01*
X118308571Y-88783390D02*
X118356190Y-88735771D01*
X118356190Y-88735771D02*
X118451428Y-88688152D01*
X118451428Y-88688152D02*
X118641904Y-88688152D01*
X118641904Y-88688152D02*
X118737142Y-88735771D01*
X119213333Y-88688152D02*
X119213333Y-89354819D01*
X119213333Y-88783390D02*
X119260952Y-88735771D01*
X119260952Y-88735771D02*
X119356190Y-88688152D01*
X119356190Y-88688152D02*
X119499047Y-88688152D01*
X119499047Y-88688152D02*
X119594285Y-88735771D01*
X119594285Y-88735771D02*
X119641904Y-88831009D01*
X119641904Y-88831009D02*
X119641904Y-89354819D01*
X120546666Y-89354819D02*
X120546666Y-88831009D01*
X120546666Y-88831009D02*
X120499047Y-88735771D01*
X120499047Y-88735771D02*
X120403809Y-88688152D01*
X120403809Y-88688152D02*
X120213333Y-88688152D01*
X120213333Y-88688152D02*
X120118095Y-88735771D01*
X120546666Y-89307200D02*
X120451428Y-89354819D01*
X120451428Y-89354819D02*
X120213333Y-89354819D01*
X120213333Y-89354819D02*
X120118095Y-89307200D01*
X120118095Y-89307200D02*
X120070476Y-89211961D01*
X120070476Y-89211961D02*
X120070476Y-89116723D01*
X120070476Y-89116723D02*
X120118095Y-89021485D01*
X120118095Y-89021485D02*
X120213333Y-88973866D01*
X120213333Y-88973866D02*
X120451428Y-88973866D01*
X120451428Y-88973866D02*
X120546666Y-88926247D01*
X120880000Y-88688152D02*
X121260952Y-88688152D01*
X121022857Y-88354819D02*
X121022857Y-89211961D01*
X121022857Y-89211961D02*
X121070476Y-89307200D01*
X121070476Y-89307200D02*
X121165714Y-89354819D01*
X121165714Y-89354819D02*
X121260952Y-89354819D01*
X121737143Y-89354819D02*
X121641905Y-89307200D01*
X121641905Y-89307200D02*
X121594286Y-89259580D01*
X121594286Y-89259580D02*
X121546667Y-89164342D01*
X121546667Y-89164342D02*
X121546667Y-88878628D01*
X121546667Y-88878628D02*
X121594286Y-88783390D01*
X121594286Y-88783390D02*
X121641905Y-88735771D01*
X121641905Y-88735771D02*
X121737143Y-88688152D01*
X121737143Y-88688152D02*
X121880000Y-88688152D01*
X121880000Y-88688152D02*
X121975238Y-88735771D01*
X121975238Y-88735771D02*
X122022857Y-88783390D01*
X122022857Y-88783390D02*
X122070476Y-88878628D01*
X122070476Y-88878628D02*
X122070476Y-89164342D01*
X122070476Y-89164342D02*
X122022857Y-89259580D01*
X122022857Y-89259580D02*
X121975238Y-89307200D01*
X121975238Y-89307200D02*
X121880000Y-89354819D01*
X121880000Y-89354819D02*
X121737143Y-89354819D01*
X122499048Y-89354819D02*
X122499048Y-88688152D01*
X122499048Y-88878628D02*
X122546667Y-88783390D01*
X122546667Y-88783390D02*
X122594286Y-88735771D01*
X122594286Y-88735771D02*
X122689524Y-88688152D01*
X122689524Y-88688152D02*
X122784762Y-88688152D01*
X123165715Y-89354819D02*
X123356191Y-89354819D01*
X123356191Y-89354819D02*
X123451429Y-89307200D01*
X123451429Y-89307200D02*
X123499048Y-89259580D01*
X123499048Y-89259580D02*
X123594286Y-89116723D01*
X123594286Y-89116723D02*
X123641905Y-88926247D01*
X123641905Y-88926247D02*
X123641905Y-88545295D01*
X123641905Y-88545295D02*
X123594286Y-88450057D01*
X123594286Y-88450057D02*
X123546667Y-88402438D01*
X123546667Y-88402438D02*
X123451429Y-88354819D01*
X123451429Y-88354819D02*
X123260953Y-88354819D01*
X123260953Y-88354819D02*
X123165715Y-88402438D01*
X123165715Y-88402438D02*
X123118096Y-88450057D01*
X123118096Y-88450057D02*
X123070477Y-88545295D01*
X123070477Y-88545295D02*
X123070477Y-88783390D01*
X123070477Y-88783390D02*
X123118096Y-88878628D01*
X123118096Y-88878628D02*
X123165715Y-88926247D01*
X123165715Y-88926247D02*
X123260953Y-88973866D01*
X123260953Y-88973866D02*
X123451429Y-88973866D01*
X123451429Y-88973866D02*
X123546667Y-88926247D01*
X123546667Y-88926247D02*
X123594286Y-88878628D01*
X123594286Y-88878628D02*
X123641905Y-88783390D01*
D11*
X108403571Y-56333365D02*
X108343095Y-56393842D01*
X108343095Y-56393842D02*
X108161666Y-56454318D01*
X108161666Y-56454318D02*
X108040714Y-56454318D01*
X108040714Y-56454318D02*
X107859285Y-56393842D01*
X107859285Y-56393842D02*
X107738333Y-56272889D01*
X107738333Y-56272889D02*
X107677856Y-56151937D01*
X107677856Y-56151937D02*
X107617380Y-55910032D01*
X107617380Y-55910032D02*
X107617380Y-55728603D01*
X107617380Y-55728603D02*
X107677856Y-55486699D01*
X107677856Y-55486699D02*
X107738333Y-55365746D01*
X107738333Y-55365746D02*
X107859285Y-55244794D01*
X107859285Y-55244794D02*
X108040714Y-55184318D01*
X108040714Y-55184318D02*
X108161666Y-55184318D01*
X108161666Y-55184318D02*
X108343095Y-55244794D01*
X108343095Y-55244794D02*
X108403571Y-55305270D01*
X109613095Y-56454318D02*
X108887380Y-56454318D01*
X109250237Y-56454318D02*
X109250237Y-55184318D01*
X109250237Y-55184318D02*
X109129285Y-55365746D01*
X109129285Y-55365746D02*
X109008333Y-55486699D01*
X109008333Y-55486699D02*
X108887380Y-55547175D01*
X110399285Y-55184318D02*
X110520238Y-55184318D01*
X110520238Y-55184318D02*
X110641190Y-55244794D01*
X110641190Y-55244794D02*
X110701666Y-55305270D01*
X110701666Y-55305270D02*
X110762142Y-55426222D01*
X110762142Y-55426222D02*
X110822619Y-55668127D01*
X110822619Y-55668127D02*
X110822619Y-55970508D01*
X110822619Y-55970508D02*
X110762142Y-56212413D01*
X110762142Y-56212413D02*
X110701666Y-56333365D01*
X110701666Y-56333365D02*
X110641190Y-56393842D01*
X110641190Y-56393842D02*
X110520238Y-56454318D01*
X110520238Y-56454318D02*
X110399285Y-56454318D01*
X110399285Y-56454318D02*
X110278333Y-56393842D01*
X110278333Y-56393842D02*
X110217857Y-56333365D01*
X110217857Y-56333365D02*
X110157380Y-56212413D01*
X110157380Y-56212413D02*
X110096904Y-55970508D01*
X110096904Y-55970508D02*
X110096904Y-55668127D01*
X110096904Y-55668127D02*
X110157380Y-55426222D01*
X110157380Y-55426222D02*
X110217857Y-55305270D01*
X110217857Y-55305270D02*
X110278333Y-55244794D01*
X110278333Y-55244794D02*
X110399285Y-55184318D01*
D10*
X146156633Y-79099580D02*
X146109014Y-79147200D01*
X146109014Y-79147200D02*
X145966157Y-79194819D01*
X145966157Y-79194819D02*
X145870919Y-79194819D01*
X145870919Y-79194819D02*
X145728062Y-79147200D01*
X145728062Y-79147200D02*
X145632824Y-79051961D01*
X145632824Y-79051961D02*
X145585205Y-78956723D01*
X145585205Y-78956723D02*
X145537586Y-78766247D01*
X145537586Y-78766247D02*
X145537586Y-78623390D01*
X145537586Y-78623390D02*
X145585205Y-78432914D01*
X145585205Y-78432914D02*
X145632824Y-78337676D01*
X145632824Y-78337676D02*
X145728062Y-78242438D01*
X145728062Y-78242438D02*
X145870919Y-78194819D01*
X145870919Y-78194819D02*
X145966157Y-78194819D01*
X145966157Y-78194819D02*
X146109014Y-78242438D01*
X146109014Y-78242438D02*
X146156633Y-78290057D01*
X146632824Y-79194819D02*
X146823300Y-79194819D01*
X146823300Y-79194819D02*
X146918538Y-79147200D01*
X146918538Y-79147200D02*
X146966157Y-79099580D01*
X146966157Y-79099580D02*
X147061395Y-78956723D01*
X147061395Y-78956723D02*
X147109014Y-78766247D01*
X147109014Y-78766247D02*
X147109014Y-78385295D01*
X147109014Y-78385295D02*
X147061395Y-78290057D01*
X147061395Y-78290057D02*
X147013776Y-78242438D01*
X147013776Y-78242438D02*
X146918538Y-78194819D01*
X146918538Y-78194819D02*
X146728062Y-78194819D01*
X146728062Y-78194819D02*
X146632824Y-78242438D01*
X146632824Y-78242438D02*
X146585205Y-78290057D01*
X146585205Y-78290057D02*
X146537586Y-78385295D01*
X146537586Y-78385295D02*
X146537586Y-78623390D01*
X146537586Y-78623390D02*
X146585205Y-78718628D01*
X146585205Y-78718628D02*
X146632824Y-78766247D01*
X146632824Y-78766247D02*
X146728062Y-78813866D01*
X146728062Y-78813866D02*
X146918538Y-78813866D01*
X146918538Y-78813866D02*
X147013776Y-78766247D01*
X147013776Y-78766247D02*
X147061395Y-78718628D01*
X147061395Y-78718628D02*
X147109014Y-78623390D01*
X143049642Y-86724234D02*
X142716309Y-86248043D01*
X142478214Y-86724234D02*
X142478214Y-85724234D01*
X142478214Y-85724234D02*
X142859166Y-85724234D01*
X142859166Y-85724234D02*
X142954404Y-85771853D01*
X142954404Y-85771853D02*
X143002023Y-85819472D01*
X143002023Y-85819472D02*
X143049642Y-85914710D01*
X143049642Y-85914710D02*
X143049642Y-86057567D01*
X143049642Y-86057567D02*
X143002023Y-86152805D01*
X143002023Y-86152805D02*
X142954404Y-86200424D01*
X142954404Y-86200424D02*
X142859166Y-86248043D01*
X142859166Y-86248043D02*
X142478214Y-86248043D01*
X144002023Y-86724234D02*
X143430595Y-86724234D01*
X143716309Y-86724234D02*
X143716309Y-85724234D01*
X143716309Y-85724234D02*
X143621071Y-85867091D01*
X143621071Y-85867091D02*
X143525833Y-85962329D01*
X143525833Y-85962329D02*
X143430595Y-86009948D01*
X144906785Y-85724234D02*
X144430595Y-85724234D01*
X144430595Y-85724234D02*
X144382976Y-86200424D01*
X144382976Y-86200424D02*
X144430595Y-86152805D01*
X144430595Y-86152805D02*
X144525833Y-86105186D01*
X144525833Y-86105186D02*
X144763928Y-86105186D01*
X144763928Y-86105186D02*
X144859166Y-86152805D01*
X144859166Y-86152805D02*
X144906785Y-86200424D01*
X144906785Y-86200424D02*
X144954404Y-86295662D01*
X144954404Y-86295662D02*
X144954404Y-86533757D01*
X144954404Y-86533757D02*
X144906785Y-86628995D01*
X144906785Y-86628995D02*
X144859166Y-86676615D01*
X144859166Y-86676615D02*
X144763928Y-86724234D01*
X144763928Y-86724234D02*
X144525833Y-86724234D01*
X144525833Y-86724234D02*
X144430595Y-86676615D01*
X144430595Y-86676615D02*
X144382976Y-86628995D01*
X143049642Y-91804234D02*
X142716309Y-91328043D01*
X142478214Y-91804234D02*
X142478214Y-90804234D01*
X142478214Y-90804234D02*
X142859166Y-90804234D01*
X142859166Y-90804234D02*
X142954404Y-90851853D01*
X142954404Y-90851853D02*
X143002023Y-90899472D01*
X143002023Y-90899472D02*
X143049642Y-90994710D01*
X143049642Y-90994710D02*
X143049642Y-91137567D01*
X143049642Y-91137567D02*
X143002023Y-91232805D01*
X143002023Y-91232805D02*
X142954404Y-91280424D01*
X142954404Y-91280424D02*
X142859166Y-91328043D01*
X142859166Y-91328043D02*
X142478214Y-91328043D01*
X144002023Y-91804234D02*
X143430595Y-91804234D01*
X143716309Y-91804234D02*
X143716309Y-90804234D01*
X143716309Y-90804234D02*
X143621071Y-90947091D01*
X143621071Y-90947091D02*
X143525833Y-91042329D01*
X143525833Y-91042329D02*
X143430595Y-91089948D01*
X144859166Y-90804234D02*
X144668690Y-90804234D01*
X144668690Y-90804234D02*
X144573452Y-90851853D01*
X144573452Y-90851853D02*
X144525833Y-90899472D01*
X144525833Y-90899472D02*
X144430595Y-91042329D01*
X144430595Y-91042329D02*
X144382976Y-91232805D01*
X144382976Y-91232805D02*
X144382976Y-91613757D01*
X144382976Y-91613757D02*
X144430595Y-91708995D01*
X144430595Y-91708995D02*
X144478214Y-91756615D01*
X144478214Y-91756615D02*
X144573452Y-91804234D01*
X144573452Y-91804234D02*
X144763928Y-91804234D01*
X144763928Y-91804234D02*
X144859166Y-91756615D01*
X144859166Y-91756615D02*
X144906785Y-91708995D01*
X144906785Y-91708995D02*
X144954404Y-91613757D01*
X144954404Y-91613757D02*
X144954404Y-91375662D01*
X144954404Y-91375662D02*
X144906785Y-91280424D01*
X144906785Y-91280424D02*
X144859166Y-91232805D01*
X144859166Y-91232805D02*
X144763928Y-91185186D01*
X144763928Y-91185186D02*
X144573452Y-91185186D01*
X144573452Y-91185186D02*
X144478214Y-91232805D01*
X144478214Y-91232805D02*
X144430595Y-91280424D01*
X144430595Y-91280424D02*
X144382976Y-91375662D01*
X107278333Y-95223995D02*
X107230714Y-95271615D01*
X107230714Y-95271615D02*
X107087857Y-95319234D01*
X107087857Y-95319234D02*
X106992619Y-95319234D01*
X106992619Y-95319234D02*
X106849762Y-95271615D01*
X106849762Y-95271615D02*
X106754524Y-95176376D01*
X106754524Y-95176376D02*
X106706905Y-95081138D01*
X106706905Y-95081138D02*
X106659286Y-94890662D01*
X106659286Y-94890662D02*
X106659286Y-94747805D01*
X106659286Y-94747805D02*
X106706905Y-94557329D01*
X106706905Y-94557329D02*
X106754524Y-94462091D01*
X106754524Y-94462091D02*
X106849762Y-94366853D01*
X106849762Y-94366853D02*
X106992619Y-94319234D01*
X106992619Y-94319234D02*
X107087857Y-94319234D01*
X107087857Y-94319234D02*
X107230714Y-94366853D01*
X107230714Y-94366853D02*
X107278333Y-94414472D01*
X108230714Y-95319234D02*
X107659286Y-95319234D01*
X107945000Y-95319234D02*
X107945000Y-94319234D01*
X107945000Y-94319234D02*
X107849762Y-94462091D01*
X107849762Y-94462091D02*
X107754524Y-94557329D01*
X107754524Y-94557329D02*
X107659286Y-94604948D01*
X118150833Y-92884819D02*
X117674643Y-92884819D01*
X117674643Y-92884819D02*
X117674643Y-91884819D01*
X119007976Y-92884819D02*
X118436548Y-92884819D01*
X118722262Y-92884819D02*
X118722262Y-91884819D01*
X118722262Y-91884819D02*
X118627024Y-92027676D01*
X118627024Y-92027676D02*
X118531786Y-92122914D01*
X118531786Y-92122914D02*
X118436548Y-92170533D01*
X114749819Y-86351319D02*
X115559342Y-86351319D01*
X115559342Y-86351319D02*
X115654580Y-86303700D01*
X115654580Y-86303700D02*
X115702200Y-86256081D01*
X115702200Y-86256081D02*
X115749819Y-86160843D01*
X115749819Y-86160843D02*
X115749819Y-85970367D01*
X115749819Y-85970367D02*
X115702200Y-85875129D01*
X115702200Y-85875129D02*
X115654580Y-85827510D01*
X115654580Y-85827510D02*
X115559342Y-85779891D01*
X115559342Y-85779891D02*
X114749819Y-85779891D01*
X114749819Y-84827510D02*
X114749819Y-85303700D01*
X114749819Y-85303700D02*
X115226009Y-85351319D01*
X115226009Y-85351319D02*
X115178390Y-85303700D01*
X115178390Y-85303700D02*
X115130771Y-85208462D01*
X115130771Y-85208462D02*
X115130771Y-84970367D01*
X115130771Y-84970367D02*
X115178390Y-84875129D01*
X115178390Y-84875129D02*
X115226009Y-84827510D01*
X115226009Y-84827510D02*
X115321247Y-84779891D01*
X115321247Y-84779891D02*
X115559342Y-84779891D01*
X115559342Y-84779891D02*
X115654580Y-84827510D01*
X115654580Y-84827510D02*
X115702200Y-84875129D01*
X115702200Y-84875129D02*
X115749819Y-84970367D01*
X115749819Y-84970367D02*
X115749819Y-85208462D01*
X115749819Y-85208462D02*
X115702200Y-85303700D01*
X115702200Y-85303700D02*
X115654580Y-85351319D01*
X106037142Y-124914819D02*
X105703809Y-124438628D01*
X105465714Y-124914819D02*
X105465714Y-123914819D01*
X105465714Y-123914819D02*
X105846666Y-123914819D01*
X105846666Y-123914819D02*
X105941904Y-123962438D01*
X105941904Y-123962438D02*
X105989523Y-124010057D01*
X105989523Y-124010057D02*
X106037142Y-124105295D01*
X106037142Y-124105295D02*
X106037142Y-124248152D01*
X106037142Y-124248152D02*
X105989523Y-124343390D01*
X105989523Y-124343390D02*
X105941904Y-124391009D01*
X105941904Y-124391009D02*
X105846666Y-124438628D01*
X105846666Y-124438628D02*
X105465714Y-124438628D01*
X106989523Y-124914819D02*
X106418095Y-124914819D01*
X106703809Y-124914819D02*
X106703809Y-123914819D01*
X106703809Y-123914819D02*
X106608571Y-124057676D01*
X106608571Y-124057676D02*
X106513333Y-124152914D01*
X106513333Y-124152914D02*
X106418095Y-124200533D01*
X107941904Y-124914819D02*
X107370476Y-124914819D01*
X107656190Y-124914819D02*
X107656190Y-123914819D01*
X107656190Y-123914819D02*
X107560952Y-124057676D01*
X107560952Y-124057676D02*
X107465714Y-124152914D01*
X107465714Y-124152914D02*
X107370476Y-124200533D01*
X61761666Y-128994819D02*
X61761666Y-129709104D01*
X61761666Y-129709104D02*
X61714047Y-129851961D01*
X61714047Y-129851961D02*
X61618809Y-129947200D01*
X61618809Y-129947200D02*
X61475952Y-129994819D01*
X61475952Y-129994819D02*
X61380714Y-129994819D01*
X62142619Y-128994819D02*
X62809285Y-128994819D01*
X62809285Y-128994819D02*
X62380714Y-129994819D01*
X65230476Y-121374819D02*
X65230476Y-122089104D01*
X65230476Y-122089104D02*
X65182857Y-122231961D01*
X65182857Y-122231961D02*
X65087619Y-122327200D01*
X65087619Y-122327200D02*
X64944762Y-122374819D01*
X64944762Y-122374819D02*
X64849524Y-122374819D01*
X66230476Y-122374819D02*
X65659048Y-122374819D01*
X65944762Y-122374819D02*
X65944762Y-121374819D01*
X65944762Y-121374819D02*
X65849524Y-121517676D01*
X65849524Y-121517676D02*
X65754286Y-121612914D01*
X65754286Y-121612914D02*
X65659048Y-121660533D01*
X67182857Y-122374819D02*
X66611429Y-122374819D01*
X66897143Y-122374819D02*
X66897143Y-121374819D01*
X66897143Y-121374819D02*
X66801905Y-121517676D01*
X66801905Y-121517676D02*
X66706667Y-121612914D01*
X66706667Y-121612914D02*
X66611429Y-121660533D01*
X61761666Y-138629819D02*
X61761666Y-139344104D01*
X61761666Y-139344104D02*
X61714047Y-139486961D01*
X61714047Y-139486961D02*
X61618809Y-139582200D01*
X61618809Y-139582200D02*
X61475952Y-139629819D01*
X61475952Y-139629819D02*
X61380714Y-139629819D01*
X62666428Y-138629819D02*
X62475952Y-138629819D01*
X62475952Y-138629819D02*
X62380714Y-138677438D01*
X62380714Y-138677438D02*
X62333095Y-138725057D01*
X62333095Y-138725057D02*
X62237857Y-138867914D01*
X62237857Y-138867914D02*
X62190238Y-139058390D01*
X62190238Y-139058390D02*
X62190238Y-139439342D01*
X62190238Y-139439342D02*
X62237857Y-139534580D01*
X62237857Y-139534580D02*
X62285476Y-139582200D01*
X62285476Y-139582200D02*
X62380714Y-139629819D01*
X62380714Y-139629819D02*
X62571190Y-139629819D01*
X62571190Y-139629819D02*
X62666428Y-139582200D01*
X62666428Y-139582200D02*
X62714047Y-139534580D01*
X62714047Y-139534580D02*
X62761666Y-139439342D01*
X62761666Y-139439342D02*
X62761666Y-139201247D01*
X62761666Y-139201247D02*
X62714047Y-139106009D01*
X62714047Y-139106009D02*
X62666428Y-139058390D01*
X62666428Y-139058390D02*
X62571190Y-139010771D01*
X62571190Y-139010771D02*
X62380714Y-139010771D01*
X62380714Y-139010771D02*
X62285476Y-139058390D01*
X62285476Y-139058390D02*
X62237857Y-139106009D01*
X62237857Y-139106009D02*
X62190238Y-139201247D01*
X123817142Y-104594819D02*
X123483809Y-104118628D01*
X123245714Y-104594819D02*
X123245714Y-103594819D01*
X123245714Y-103594819D02*
X123626666Y-103594819D01*
X123626666Y-103594819D02*
X123721904Y-103642438D01*
X123721904Y-103642438D02*
X123769523Y-103690057D01*
X123769523Y-103690057D02*
X123817142Y-103785295D01*
X123817142Y-103785295D02*
X123817142Y-103928152D01*
X123817142Y-103928152D02*
X123769523Y-104023390D01*
X123769523Y-104023390D02*
X123721904Y-104071009D01*
X123721904Y-104071009D02*
X123626666Y-104118628D01*
X123626666Y-104118628D02*
X123245714Y-104118628D01*
X124769523Y-104594819D02*
X124198095Y-104594819D01*
X124483809Y-104594819D02*
X124483809Y-103594819D01*
X124483809Y-103594819D02*
X124388571Y-103737676D01*
X124388571Y-103737676D02*
X124293333Y-103832914D01*
X124293333Y-103832914D02*
X124198095Y-103880533D01*
X125150476Y-103690057D02*
X125198095Y-103642438D01*
X125198095Y-103642438D02*
X125293333Y-103594819D01*
X125293333Y-103594819D02*
X125531428Y-103594819D01*
X125531428Y-103594819D02*
X125626666Y-103642438D01*
X125626666Y-103642438D02*
X125674285Y-103690057D01*
X125674285Y-103690057D02*
X125721904Y-103785295D01*
X125721904Y-103785295D02*
X125721904Y-103880533D01*
X125721904Y-103880533D02*
X125674285Y-104023390D01*
X125674285Y-104023390D02*
X125102857Y-104594819D01*
X125102857Y-104594819D02*
X125721904Y-104594819D01*
X73493333Y-142599580D02*
X73445714Y-142647200D01*
X73445714Y-142647200D02*
X73302857Y-142694819D01*
X73302857Y-142694819D02*
X73207619Y-142694819D01*
X73207619Y-142694819D02*
X73064762Y-142647200D01*
X73064762Y-142647200D02*
X72969524Y-142551961D01*
X72969524Y-142551961D02*
X72921905Y-142456723D01*
X72921905Y-142456723D02*
X72874286Y-142266247D01*
X72874286Y-142266247D02*
X72874286Y-142123390D01*
X72874286Y-142123390D02*
X72921905Y-141932914D01*
X72921905Y-141932914D02*
X72969524Y-141837676D01*
X72969524Y-141837676D02*
X73064762Y-141742438D01*
X73064762Y-141742438D02*
X73207619Y-141694819D01*
X73207619Y-141694819D02*
X73302857Y-141694819D01*
X73302857Y-141694819D02*
X73445714Y-141742438D01*
X73445714Y-141742438D02*
X73493333Y-141790057D01*
X74350476Y-141694819D02*
X74160000Y-141694819D01*
X74160000Y-141694819D02*
X74064762Y-141742438D01*
X74064762Y-141742438D02*
X74017143Y-141790057D01*
X74017143Y-141790057D02*
X73921905Y-141932914D01*
X73921905Y-141932914D02*
X73874286Y-142123390D01*
X73874286Y-142123390D02*
X73874286Y-142504342D01*
X73874286Y-142504342D02*
X73921905Y-142599580D01*
X73921905Y-142599580D02*
X73969524Y-142647200D01*
X73969524Y-142647200D02*
X74064762Y-142694819D01*
X74064762Y-142694819D02*
X74255238Y-142694819D01*
X74255238Y-142694819D02*
X74350476Y-142647200D01*
X74350476Y-142647200D02*
X74398095Y-142599580D01*
X74398095Y-142599580D02*
X74445714Y-142504342D01*
X74445714Y-142504342D02*
X74445714Y-142266247D01*
X74445714Y-142266247D02*
X74398095Y-142171009D01*
X74398095Y-142171009D02*
X74350476Y-142123390D01*
X74350476Y-142123390D02*
X74255238Y-142075771D01*
X74255238Y-142075771D02*
X74064762Y-142075771D01*
X74064762Y-142075771D02*
X73969524Y-142123390D01*
X73969524Y-142123390D02*
X73921905Y-142171009D01*
X73921905Y-142171009D02*
X73874286Y-142266247D01*
X127806666Y-128230424D02*
X127473333Y-128230424D01*
X127473333Y-128754234D02*
X127473333Y-127754234D01*
X127473333Y-127754234D02*
X127949523Y-127754234D01*
X128854285Y-128754234D02*
X128282857Y-128754234D01*
X128568571Y-128754234D02*
X128568571Y-127754234D01*
X128568571Y-127754234D02*
X128473333Y-127897091D01*
X128473333Y-127897091D02*
X128378095Y-127992329D01*
X128378095Y-127992329D02*
X128282857Y-128039948D01*
X131142310Y-87104234D02*
X131142310Y-86104234D01*
X132189928Y-87008995D02*
X132142309Y-87056615D01*
X132142309Y-87056615D02*
X131999452Y-87104234D01*
X131999452Y-87104234D02*
X131904214Y-87104234D01*
X131904214Y-87104234D02*
X131761357Y-87056615D01*
X131761357Y-87056615D02*
X131666119Y-86961376D01*
X131666119Y-86961376D02*
X131618500Y-86866138D01*
X131618500Y-86866138D02*
X131570881Y-86675662D01*
X131570881Y-86675662D02*
X131570881Y-86532805D01*
X131570881Y-86532805D02*
X131618500Y-86342329D01*
X131618500Y-86342329D02*
X131666119Y-86247091D01*
X131666119Y-86247091D02*
X131761357Y-86151853D01*
X131761357Y-86151853D02*
X131904214Y-86104234D01*
X131904214Y-86104234D02*
X131999452Y-86104234D01*
X131999452Y-86104234D02*
X132142309Y-86151853D01*
X132142309Y-86151853D02*
X132189928Y-86199472D01*
X133142309Y-87104234D02*
X132570881Y-87104234D01*
X132856595Y-87104234D02*
X132856595Y-86104234D01*
X132856595Y-86104234D02*
X132761357Y-86247091D01*
X132761357Y-86247091D02*
X132666119Y-86342329D01*
X132666119Y-86342329D02*
X132570881Y-86389948D01*
X129540000Y-80541634D02*
X129540000Y-80779729D01*
X129301905Y-80684491D02*
X129540000Y-80779729D01*
X129540000Y-80779729D02*
X129778095Y-80684491D01*
X129397143Y-80970205D02*
X129540000Y-80779729D01*
X129540000Y-80779729D02*
X129682857Y-80970205D01*
X127286000Y-80541634D02*
X127286000Y-80779729D01*
X127047905Y-80684491D02*
X127286000Y-80779729D01*
X127286000Y-80779729D02*
X127524095Y-80684491D01*
X127143143Y-80970205D02*
X127286000Y-80779729D01*
X127286000Y-80779729D02*
X127428857Y-80970205D01*
X108140833Y-123044234D02*
X107807500Y-122568043D01*
X107569405Y-123044234D02*
X107569405Y-122044234D01*
X107569405Y-122044234D02*
X107950357Y-122044234D01*
X107950357Y-122044234D02*
X108045595Y-122091853D01*
X108045595Y-122091853D02*
X108093214Y-122139472D01*
X108093214Y-122139472D02*
X108140833Y-122234710D01*
X108140833Y-122234710D02*
X108140833Y-122377567D01*
X108140833Y-122377567D02*
X108093214Y-122472805D01*
X108093214Y-122472805D02*
X108045595Y-122520424D01*
X108045595Y-122520424D02*
X107950357Y-122568043D01*
X107950357Y-122568043D02*
X107569405Y-122568043D01*
X108712262Y-122472805D02*
X108617024Y-122425186D01*
X108617024Y-122425186D02*
X108569405Y-122377567D01*
X108569405Y-122377567D02*
X108521786Y-122282329D01*
X108521786Y-122282329D02*
X108521786Y-122234710D01*
X108521786Y-122234710D02*
X108569405Y-122139472D01*
X108569405Y-122139472D02*
X108617024Y-122091853D01*
X108617024Y-122091853D02*
X108712262Y-122044234D01*
X108712262Y-122044234D02*
X108902738Y-122044234D01*
X108902738Y-122044234D02*
X108997976Y-122091853D01*
X108997976Y-122091853D02*
X109045595Y-122139472D01*
X109045595Y-122139472D02*
X109093214Y-122234710D01*
X109093214Y-122234710D02*
X109093214Y-122282329D01*
X109093214Y-122282329D02*
X109045595Y-122377567D01*
X109045595Y-122377567D02*
X108997976Y-122425186D01*
X108997976Y-122425186D02*
X108902738Y-122472805D01*
X108902738Y-122472805D02*
X108712262Y-122472805D01*
X108712262Y-122472805D02*
X108617024Y-122520424D01*
X108617024Y-122520424D02*
X108569405Y-122568043D01*
X108569405Y-122568043D02*
X108521786Y-122663281D01*
X108521786Y-122663281D02*
X108521786Y-122853757D01*
X108521786Y-122853757D02*
X108569405Y-122948995D01*
X108569405Y-122948995D02*
X108617024Y-122996615D01*
X108617024Y-122996615D02*
X108712262Y-123044234D01*
X108712262Y-123044234D02*
X108902738Y-123044234D01*
X108902738Y-123044234D02*
X108997976Y-122996615D01*
X108997976Y-122996615D02*
X109045595Y-122948995D01*
X109045595Y-122948995D02*
X109093214Y-122853757D01*
X109093214Y-122853757D02*
X109093214Y-122663281D01*
X109093214Y-122663281D02*
X109045595Y-122568043D01*
X109045595Y-122568043D02*
X108997976Y-122520424D01*
X108997976Y-122520424D02*
X108902738Y-122472805D01*
X66373333Y-94525180D02*
X66373333Y-93810895D01*
X66373333Y-93810895D02*
X66420952Y-93668038D01*
X66420952Y-93668038D02*
X66516190Y-93572800D01*
X66516190Y-93572800D02*
X66659047Y-93525180D01*
X66659047Y-93525180D02*
X66754285Y-93525180D01*
X65992380Y-94525180D02*
X65373333Y-94525180D01*
X65373333Y-94525180D02*
X65706666Y-94144228D01*
X65706666Y-94144228D02*
X65563809Y-94144228D01*
X65563809Y-94144228D02*
X65468571Y-94096609D01*
X65468571Y-94096609D02*
X65420952Y-94048990D01*
X65420952Y-94048990D02*
X65373333Y-93953752D01*
X65373333Y-93953752D02*
X65373333Y-93715657D01*
X65373333Y-93715657D02*
X65420952Y-93620419D01*
X65420952Y-93620419D02*
X65468571Y-93572800D01*
X65468571Y-93572800D02*
X65563809Y-93525180D01*
X65563809Y-93525180D02*
X65849523Y-93525180D01*
X65849523Y-93525180D02*
X65944761Y-93572800D01*
X65944761Y-93572800D02*
X65992380Y-93620419D01*
X70953333Y-137519580D02*
X70905714Y-137567200D01*
X70905714Y-137567200D02*
X70762857Y-137614819D01*
X70762857Y-137614819D02*
X70667619Y-137614819D01*
X70667619Y-137614819D02*
X70524762Y-137567200D01*
X70524762Y-137567200D02*
X70429524Y-137471961D01*
X70429524Y-137471961D02*
X70381905Y-137376723D01*
X70381905Y-137376723D02*
X70334286Y-137186247D01*
X70334286Y-137186247D02*
X70334286Y-137043390D01*
X70334286Y-137043390D02*
X70381905Y-136852914D01*
X70381905Y-136852914D02*
X70429524Y-136757676D01*
X70429524Y-136757676D02*
X70524762Y-136662438D01*
X70524762Y-136662438D02*
X70667619Y-136614819D01*
X70667619Y-136614819D02*
X70762857Y-136614819D01*
X70762857Y-136614819D02*
X70905714Y-136662438D01*
X70905714Y-136662438D02*
X70953333Y-136710057D01*
X71858095Y-136614819D02*
X71381905Y-136614819D01*
X71381905Y-136614819D02*
X71334286Y-137091009D01*
X71334286Y-137091009D02*
X71381905Y-137043390D01*
X71381905Y-137043390D02*
X71477143Y-136995771D01*
X71477143Y-136995771D02*
X71715238Y-136995771D01*
X71715238Y-136995771D02*
X71810476Y-137043390D01*
X71810476Y-137043390D02*
X71858095Y-137091009D01*
X71858095Y-137091009D02*
X71905714Y-137186247D01*
X71905714Y-137186247D02*
X71905714Y-137424342D01*
X71905714Y-137424342D02*
X71858095Y-137519580D01*
X71858095Y-137519580D02*
X71810476Y-137567200D01*
X71810476Y-137567200D02*
X71715238Y-137614819D01*
X71715238Y-137614819D02*
X71477143Y-137614819D01*
X71477143Y-137614819D02*
X71381905Y-137567200D01*
X71381905Y-137567200D02*
X71334286Y-137519580D01*
X90331666Y-81054819D02*
X90331666Y-81769104D01*
X90331666Y-81769104D02*
X90284047Y-81911961D01*
X90284047Y-81911961D02*
X90188809Y-82007200D01*
X90188809Y-82007200D02*
X90045952Y-82054819D01*
X90045952Y-82054819D02*
X89950714Y-82054819D01*
X91236428Y-81388152D02*
X91236428Y-82054819D01*
X90998333Y-81007200D02*
X90760238Y-81721485D01*
X90760238Y-81721485D02*
X91379285Y-81721485D01*
X111593333Y-127364234D02*
X111260000Y-126888043D01*
X111021905Y-127364234D02*
X111021905Y-126364234D01*
X111021905Y-126364234D02*
X111402857Y-126364234D01*
X111402857Y-126364234D02*
X111498095Y-126411853D01*
X111498095Y-126411853D02*
X111545714Y-126459472D01*
X111545714Y-126459472D02*
X111593333Y-126554710D01*
X111593333Y-126554710D02*
X111593333Y-126697567D01*
X111593333Y-126697567D02*
X111545714Y-126792805D01*
X111545714Y-126792805D02*
X111498095Y-126840424D01*
X111498095Y-126840424D02*
X111402857Y-126888043D01*
X111402857Y-126888043D02*
X111021905Y-126888043D01*
X112069524Y-127364234D02*
X112260000Y-127364234D01*
X112260000Y-127364234D02*
X112355238Y-127316615D01*
X112355238Y-127316615D02*
X112402857Y-127268995D01*
X112402857Y-127268995D02*
X112498095Y-127126138D01*
X112498095Y-127126138D02*
X112545714Y-126935662D01*
X112545714Y-126935662D02*
X112545714Y-126554710D01*
X112545714Y-126554710D02*
X112498095Y-126459472D01*
X112498095Y-126459472D02*
X112450476Y-126411853D01*
X112450476Y-126411853D02*
X112355238Y-126364234D01*
X112355238Y-126364234D02*
X112164762Y-126364234D01*
X112164762Y-126364234D02*
X112069524Y-126411853D01*
X112069524Y-126411853D02*
X112021905Y-126459472D01*
X112021905Y-126459472D02*
X111974286Y-126554710D01*
X111974286Y-126554710D02*
X111974286Y-126792805D01*
X111974286Y-126792805D02*
X112021905Y-126888043D01*
X112021905Y-126888043D02*
X112069524Y-126935662D01*
X112069524Y-126935662D02*
X112164762Y-126983281D01*
X112164762Y-126983281D02*
X112355238Y-126983281D01*
X112355238Y-126983281D02*
X112450476Y-126935662D01*
X112450476Y-126935662D02*
X112498095Y-126888043D01*
X112498095Y-126888043D02*
X112545714Y-126792805D01*
X125269642Y-76564234D02*
X124936309Y-76088043D01*
X124698214Y-76564234D02*
X124698214Y-75564234D01*
X124698214Y-75564234D02*
X125079166Y-75564234D01*
X125079166Y-75564234D02*
X125174404Y-75611853D01*
X125174404Y-75611853D02*
X125222023Y-75659472D01*
X125222023Y-75659472D02*
X125269642Y-75754710D01*
X125269642Y-75754710D02*
X125269642Y-75897567D01*
X125269642Y-75897567D02*
X125222023Y-75992805D01*
X125222023Y-75992805D02*
X125174404Y-76040424D01*
X125174404Y-76040424D02*
X125079166Y-76088043D01*
X125079166Y-76088043D02*
X124698214Y-76088043D01*
X126222023Y-76564234D02*
X125650595Y-76564234D01*
X125936309Y-76564234D02*
X125936309Y-75564234D01*
X125936309Y-75564234D02*
X125841071Y-75707091D01*
X125841071Y-75707091D02*
X125745833Y-75802329D01*
X125745833Y-75802329D02*
X125650595Y-75849948D01*
X127079166Y-75897567D02*
X127079166Y-76564234D01*
X126841071Y-75516615D02*
X126602976Y-76230900D01*
X126602976Y-76230900D02*
X127222023Y-76230900D01*
X121110476Y-106134819D02*
X121110476Y-106849104D01*
X121110476Y-106849104D02*
X121062857Y-106991961D01*
X121062857Y-106991961D02*
X120967619Y-107087200D01*
X120967619Y-107087200D02*
X120824762Y-107134819D01*
X120824762Y-107134819D02*
X120729524Y-107134819D01*
X122110476Y-107134819D02*
X121539048Y-107134819D01*
X121824762Y-107134819D02*
X121824762Y-106134819D01*
X121824762Y-106134819D02*
X121729524Y-106277676D01*
X121729524Y-106277676D02*
X121634286Y-106372914D01*
X121634286Y-106372914D02*
X121539048Y-106420533D01*
X122491429Y-106230057D02*
X122539048Y-106182438D01*
X122539048Y-106182438D02*
X122634286Y-106134819D01*
X122634286Y-106134819D02*
X122872381Y-106134819D01*
X122872381Y-106134819D02*
X122967619Y-106182438D01*
X122967619Y-106182438D02*
X123015238Y-106230057D01*
X123015238Y-106230057D02*
X123062857Y-106325295D01*
X123062857Y-106325295D02*
X123062857Y-106420533D01*
X123062857Y-106420533D02*
X123015238Y-106563390D01*
X123015238Y-106563390D02*
X122443810Y-107134819D01*
X122443810Y-107134819D02*
X123062857Y-107134819D01*
X93646666Y-146774819D02*
X93646666Y-147489104D01*
X93646666Y-147489104D02*
X93599047Y-147631961D01*
X93599047Y-147631961D02*
X93503809Y-147727200D01*
X93503809Y-147727200D02*
X93360952Y-147774819D01*
X93360952Y-147774819D02*
X93265714Y-147774819D01*
X94265714Y-147203390D02*
X94170476Y-147155771D01*
X94170476Y-147155771D02*
X94122857Y-147108152D01*
X94122857Y-147108152D02*
X94075238Y-147012914D01*
X94075238Y-147012914D02*
X94075238Y-146965295D01*
X94075238Y-146965295D02*
X94122857Y-146870057D01*
X94122857Y-146870057D02*
X94170476Y-146822438D01*
X94170476Y-146822438D02*
X94265714Y-146774819D01*
X94265714Y-146774819D02*
X94456190Y-146774819D01*
X94456190Y-146774819D02*
X94551428Y-146822438D01*
X94551428Y-146822438D02*
X94599047Y-146870057D01*
X94599047Y-146870057D02*
X94646666Y-146965295D01*
X94646666Y-146965295D02*
X94646666Y-147012914D01*
X94646666Y-147012914D02*
X94599047Y-147108152D01*
X94599047Y-147108152D02*
X94551428Y-147155771D01*
X94551428Y-147155771D02*
X94456190Y-147203390D01*
X94456190Y-147203390D02*
X94265714Y-147203390D01*
X94265714Y-147203390D02*
X94170476Y-147251009D01*
X94170476Y-147251009D02*
X94122857Y-147298628D01*
X94122857Y-147298628D02*
X94075238Y-147393866D01*
X94075238Y-147393866D02*
X94075238Y-147584342D01*
X94075238Y-147584342D02*
X94122857Y-147679580D01*
X94122857Y-147679580D02*
X94170476Y-147727200D01*
X94170476Y-147727200D02*
X94265714Y-147774819D01*
X94265714Y-147774819D02*
X94456190Y-147774819D01*
X94456190Y-147774819D02*
X94551428Y-147727200D01*
X94551428Y-147727200D02*
X94599047Y-147679580D01*
X94599047Y-147679580D02*
X94646666Y-147584342D01*
X94646666Y-147584342D02*
X94646666Y-147393866D01*
X94646666Y-147393866D02*
X94599047Y-147298628D01*
X94599047Y-147298628D02*
X94551428Y-147251009D01*
X94551428Y-147251009D02*
X94456190Y-147203390D01*
X127640595Y-136444234D02*
X127640595Y-137253757D01*
X127640595Y-137253757D02*
X127688214Y-137348995D01*
X127688214Y-137348995D02*
X127735833Y-137396615D01*
X127735833Y-137396615D02*
X127831071Y-137444234D01*
X127831071Y-137444234D02*
X128021547Y-137444234D01*
X128021547Y-137444234D02*
X128116785Y-137396615D01*
X128116785Y-137396615D02*
X128164404Y-137348995D01*
X128164404Y-137348995D02*
X128212023Y-137253757D01*
X128212023Y-137253757D02*
X128212023Y-136444234D01*
X129212023Y-137444234D02*
X128640595Y-137444234D01*
X128926309Y-137444234D02*
X128926309Y-136444234D01*
X128926309Y-136444234D02*
X128831071Y-136587091D01*
X128831071Y-136587091D02*
X128735833Y-136682329D01*
X128735833Y-136682329D02*
X128640595Y-136729948D01*
X93337142Y-74019580D02*
X93289523Y-74067200D01*
X93289523Y-74067200D02*
X93146666Y-74114819D01*
X93146666Y-74114819D02*
X93051428Y-74114819D01*
X93051428Y-74114819D02*
X92908571Y-74067200D01*
X92908571Y-74067200D02*
X92813333Y-73971961D01*
X92813333Y-73971961D02*
X92765714Y-73876723D01*
X92765714Y-73876723D02*
X92718095Y-73686247D01*
X92718095Y-73686247D02*
X92718095Y-73543390D01*
X92718095Y-73543390D02*
X92765714Y-73352914D01*
X92765714Y-73352914D02*
X92813333Y-73257676D01*
X92813333Y-73257676D02*
X92908571Y-73162438D01*
X92908571Y-73162438D02*
X93051428Y-73114819D01*
X93051428Y-73114819D02*
X93146666Y-73114819D01*
X93146666Y-73114819D02*
X93289523Y-73162438D01*
X93289523Y-73162438D02*
X93337142Y-73210057D01*
X94289523Y-74114819D02*
X93718095Y-74114819D01*
X94003809Y-74114819D02*
X94003809Y-73114819D01*
X94003809Y-73114819D02*
X93908571Y-73257676D01*
X93908571Y-73257676D02*
X93813333Y-73352914D01*
X93813333Y-73352914D02*
X93718095Y-73400533D01*
X94670476Y-73210057D02*
X94718095Y-73162438D01*
X94718095Y-73162438D02*
X94813333Y-73114819D01*
X94813333Y-73114819D02*
X95051428Y-73114819D01*
X95051428Y-73114819D02*
X95146666Y-73162438D01*
X95146666Y-73162438D02*
X95194285Y-73210057D01*
X95194285Y-73210057D02*
X95241904Y-73305295D01*
X95241904Y-73305295D02*
X95241904Y-73400533D01*
X95241904Y-73400533D02*
X95194285Y-73543390D01*
X95194285Y-73543390D02*
X94622857Y-74114819D01*
X94622857Y-74114819D02*
X95241904Y-74114819D01*
X86629642Y-138284234D02*
X86296309Y-137808043D01*
X86058214Y-138284234D02*
X86058214Y-137284234D01*
X86058214Y-137284234D02*
X86439166Y-137284234D01*
X86439166Y-137284234D02*
X86534404Y-137331853D01*
X86534404Y-137331853D02*
X86582023Y-137379472D01*
X86582023Y-137379472D02*
X86629642Y-137474710D01*
X86629642Y-137474710D02*
X86629642Y-137617567D01*
X86629642Y-137617567D02*
X86582023Y-137712805D01*
X86582023Y-137712805D02*
X86534404Y-137760424D01*
X86534404Y-137760424D02*
X86439166Y-137808043D01*
X86439166Y-137808043D02*
X86058214Y-137808043D01*
X87010595Y-137379472D02*
X87058214Y-137331853D01*
X87058214Y-137331853D02*
X87153452Y-137284234D01*
X87153452Y-137284234D02*
X87391547Y-137284234D01*
X87391547Y-137284234D02*
X87486785Y-137331853D01*
X87486785Y-137331853D02*
X87534404Y-137379472D01*
X87534404Y-137379472D02*
X87582023Y-137474710D01*
X87582023Y-137474710D02*
X87582023Y-137569948D01*
X87582023Y-137569948D02*
X87534404Y-137712805D01*
X87534404Y-137712805D02*
X86962976Y-138284234D01*
X86962976Y-138284234D02*
X87582023Y-138284234D01*
X88201071Y-137284234D02*
X88296309Y-137284234D01*
X88296309Y-137284234D02*
X88391547Y-137331853D01*
X88391547Y-137331853D02*
X88439166Y-137379472D01*
X88439166Y-137379472D02*
X88486785Y-137474710D01*
X88486785Y-137474710D02*
X88534404Y-137665186D01*
X88534404Y-137665186D02*
X88534404Y-137903281D01*
X88534404Y-137903281D02*
X88486785Y-138093757D01*
X88486785Y-138093757D02*
X88439166Y-138188995D01*
X88439166Y-138188995D02*
X88391547Y-138236615D01*
X88391547Y-138236615D02*
X88296309Y-138284234D01*
X88296309Y-138284234D02*
X88201071Y-138284234D01*
X88201071Y-138284234D02*
X88105833Y-138236615D01*
X88105833Y-138236615D02*
X88058214Y-138188995D01*
X88058214Y-138188995D02*
X88010595Y-138093757D01*
X88010595Y-138093757D02*
X87962976Y-137903281D01*
X87962976Y-137903281D02*
X87962976Y-137665186D01*
X87962976Y-137665186D02*
X88010595Y-137474710D01*
X88010595Y-137474710D02*
X88058214Y-137379472D01*
X88058214Y-137379472D02*
X88105833Y-137331853D01*
X88105833Y-137331853D02*
X88201071Y-137284234D01*
X151945180Y-107537139D02*
X152421371Y-107203806D01*
X151945180Y-106965711D02*
X152945180Y-106965711D01*
X152945180Y-106965711D02*
X152945180Y-107346663D01*
X152945180Y-107346663D02*
X152897561Y-107441901D01*
X152897561Y-107441901D02*
X152849942Y-107489520D01*
X152849942Y-107489520D02*
X152754704Y-107537139D01*
X152754704Y-107537139D02*
X152611847Y-107537139D01*
X152611847Y-107537139D02*
X152516609Y-107489520D01*
X152516609Y-107489520D02*
X152468990Y-107441901D01*
X152468990Y-107441901D02*
X152421371Y-107346663D01*
X152421371Y-107346663D02*
X152421371Y-106965711D01*
X151945180Y-108489520D02*
X151945180Y-107918092D01*
X151945180Y-108203806D02*
X152945180Y-108203806D01*
X152945180Y-108203806D02*
X152802323Y-108108568D01*
X152802323Y-108108568D02*
X152707085Y-108013330D01*
X152707085Y-108013330D02*
X152659466Y-107918092D01*
X152945180Y-108822854D02*
X152945180Y-109489520D01*
X152945180Y-109489520D02*
X151945180Y-109060949D01*
D11*
X71694318Y-61301666D02*
X71694318Y-61906428D01*
X71694318Y-61906428D02*
X70424318Y-61906428D01*
X70424318Y-60999285D02*
X70424318Y-60213094D01*
X70424318Y-60213094D02*
X70908127Y-60636428D01*
X70908127Y-60636428D02*
X70908127Y-60454999D01*
X70908127Y-60454999D02*
X70968603Y-60334047D01*
X70968603Y-60334047D02*
X71029080Y-60273571D01*
X71029080Y-60273571D02*
X71150032Y-60213094D01*
X71150032Y-60213094D02*
X71452413Y-60213094D01*
X71452413Y-60213094D02*
X71573365Y-60273571D01*
X71573365Y-60273571D02*
X71633842Y-60334047D01*
X71633842Y-60334047D02*
X71694318Y-60454999D01*
X71694318Y-60454999D02*
X71694318Y-60817856D01*
X71694318Y-60817856D02*
X71633842Y-60938809D01*
X71633842Y-60938809D02*
X71573365Y-60999285D01*
D10*
X116585667Y-126235615D02*
X116728524Y-126283234D01*
X116728524Y-126283234D02*
X116966619Y-126283234D01*
X116966619Y-126283234D02*
X117061857Y-126235615D01*
X117061857Y-126235615D02*
X117109476Y-126187995D01*
X117109476Y-126187995D02*
X117157095Y-126092757D01*
X117157095Y-126092757D02*
X117157095Y-125997519D01*
X117157095Y-125997519D02*
X117109476Y-125902281D01*
X117109476Y-125902281D02*
X117061857Y-125854662D01*
X117061857Y-125854662D02*
X116966619Y-125807043D01*
X116966619Y-125807043D02*
X116776143Y-125759424D01*
X116776143Y-125759424D02*
X116680905Y-125711805D01*
X116680905Y-125711805D02*
X116633286Y-125664186D01*
X116633286Y-125664186D02*
X116585667Y-125568948D01*
X116585667Y-125568948D02*
X116585667Y-125473710D01*
X116585667Y-125473710D02*
X116633286Y-125378472D01*
X116633286Y-125378472D02*
X116680905Y-125330853D01*
X116680905Y-125330853D02*
X116776143Y-125283234D01*
X116776143Y-125283234D02*
X117014238Y-125283234D01*
X117014238Y-125283234D02*
X117157095Y-125330853D01*
X117490429Y-125283234D02*
X117728524Y-126283234D01*
X117728524Y-126283234D02*
X117919000Y-125568948D01*
X117919000Y-125568948D02*
X118109476Y-126283234D01*
X118109476Y-126283234D02*
X118347572Y-125283234D01*
X118680905Y-125378472D02*
X118728524Y-125330853D01*
X118728524Y-125330853D02*
X118823762Y-125283234D01*
X118823762Y-125283234D02*
X119061857Y-125283234D01*
X119061857Y-125283234D02*
X119157095Y-125330853D01*
X119157095Y-125330853D02*
X119204714Y-125378472D01*
X119204714Y-125378472D02*
X119252333Y-125473710D01*
X119252333Y-125473710D02*
X119252333Y-125568948D01*
X119252333Y-125568948D02*
X119204714Y-125711805D01*
X119204714Y-125711805D02*
X118633286Y-126283234D01*
X118633286Y-126283234D02*
X119252333Y-126283234D01*
X104409642Y-131644819D02*
X104076309Y-131168628D01*
X103838214Y-131644819D02*
X103838214Y-130644819D01*
X103838214Y-130644819D02*
X104219166Y-130644819D01*
X104219166Y-130644819D02*
X104314404Y-130692438D01*
X104314404Y-130692438D02*
X104362023Y-130740057D01*
X104362023Y-130740057D02*
X104409642Y-130835295D01*
X104409642Y-130835295D02*
X104409642Y-130978152D01*
X104409642Y-130978152D02*
X104362023Y-131073390D01*
X104362023Y-131073390D02*
X104314404Y-131121009D01*
X104314404Y-131121009D02*
X104219166Y-131168628D01*
X104219166Y-131168628D02*
X103838214Y-131168628D01*
X105362023Y-131644819D02*
X104790595Y-131644819D01*
X105076309Y-131644819D02*
X105076309Y-130644819D01*
X105076309Y-130644819D02*
X104981071Y-130787676D01*
X104981071Y-130787676D02*
X104885833Y-130882914D01*
X104885833Y-130882914D02*
X104790595Y-130930533D01*
X105981071Y-130644819D02*
X106076309Y-130644819D01*
X106076309Y-130644819D02*
X106171547Y-130692438D01*
X106171547Y-130692438D02*
X106219166Y-130740057D01*
X106219166Y-130740057D02*
X106266785Y-130835295D01*
X106266785Y-130835295D02*
X106314404Y-131025771D01*
X106314404Y-131025771D02*
X106314404Y-131263866D01*
X106314404Y-131263866D02*
X106266785Y-131454342D01*
X106266785Y-131454342D02*
X106219166Y-131549580D01*
X106219166Y-131549580D02*
X106171547Y-131597200D01*
X106171547Y-131597200D02*
X106076309Y-131644819D01*
X106076309Y-131644819D02*
X105981071Y-131644819D01*
X105981071Y-131644819D02*
X105885833Y-131597200D01*
X105885833Y-131597200D02*
X105838214Y-131549580D01*
X105838214Y-131549580D02*
X105790595Y-131454342D01*
X105790595Y-131454342D02*
X105742976Y-131263866D01*
X105742976Y-131263866D02*
X105742976Y-131025771D01*
X105742976Y-131025771D02*
X105790595Y-130835295D01*
X105790595Y-130835295D02*
X105838214Y-130740057D01*
X105838214Y-130740057D02*
X105885833Y-130692438D01*
X105885833Y-130692438D02*
X105981071Y-130644819D01*
X76033333Y-131644819D02*
X75700000Y-131168628D01*
X75461905Y-131644819D02*
X75461905Y-130644819D01*
X75461905Y-130644819D02*
X75842857Y-130644819D01*
X75842857Y-130644819D02*
X75938095Y-130692438D01*
X75938095Y-130692438D02*
X75985714Y-130740057D01*
X75985714Y-130740057D02*
X76033333Y-130835295D01*
X76033333Y-130835295D02*
X76033333Y-130978152D01*
X76033333Y-130978152D02*
X75985714Y-131073390D01*
X75985714Y-131073390D02*
X75938095Y-131121009D01*
X75938095Y-131121009D02*
X75842857Y-131168628D01*
X75842857Y-131168628D02*
X75461905Y-131168628D01*
X76414286Y-130740057D02*
X76461905Y-130692438D01*
X76461905Y-130692438D02*
X76557143Y-130644819D01*
X76557143Y-130644819D02*
X76795238Y-130644819D01*
X76795238Y-130644819D02*
X76890476Y-130692438D01*
X76890476Y-130692438D02*
X76938095Y-130740057D01*
X76938095Y-130740057D02*
X76985714Y-130835295D01*
X76985714Y-130835295D02*
X76985714Y-130930533D01*
X76985714Y-130930533D02*
X76938095Y-131073390D01*
X76938095Y-131073390D02*
X76366667Y-131644819D01*
X76366667Y-131644819D02*
X76985714Y-131644819D01*
X124293333Y-139938995D02*
X124245714Y-139986615D01*
X124245714Y-139986615D02*
X124102857Y-140034234D01*
X124102857Y-140034234D02*
X124007619Y-140034234D01*
X124007619Y-140034234D02*
X123864762Y-139986615D01*
X123864762Y-139986615D02*
X123769524Y-139891376D01*
X123769524Y-139891376D02*
X123721905Y-139796138D01*
X123721905Y-139796138D02*
X123674286Y-139605662D01*
X123674286Y-139605662D02*
X123674286Y-139462805D01*
X123674286Y-139462805D02*
X123721905Y-139272329D01*
X123721905Y-139272329D02*
X123769524Y-139177091D01*
X123769524Y-139177091D02*
X123864762Y-139081853D01*
X123864762Y-139081853D02*
X124007619Y-139034234D01*
X124007619Y-139034234D02*
X124102857Y-139034234D01*
X124102857Y-139034234D02*
X124245714Y-139081853D01*
X124245714Y-139081853D02*
X124293333Y-139129472D01*
X124674286Y-139129472D02*
X124721905Y-139081853D01*
X124721905Y-139081853D02*
X124817143Y-139034234D01*
X124817143Y-139034234D02*
X125055238Y-139034234D01*
X125055238Y-139034234D02*
X125150476Y-139081853D01*
X125150476Y-139081853D02*
X125198095Y-139129472D01*
X125198095Y-139129472D02*
X125245714Y-139224710D01*
X125245714Y-139224710D02*
X125245714Y-139319948D01*
X125245714Y-139319948D02*
X125198095Y-139462805D01*
X125198095Y-139462805D02*
X124626667Y-140034234D01*
X124626667Y-140034234D02*
X125245714Y-140034234D01*
X70310476Y-111214819D02*
X70310476Y-111929104D01*
X70310476Y-111929104D02*
X70262857Y-112071961D01*
X70262857Y-112071961D02*
X70167619Y-112167200D01*
X70167619Y-112167200D02*
X70024762Y-112214819D01*
X70024762Y-112214819D02*
X69929524Y-112214819D01*
X71310476Y-112214819D02*
X70739048Y-112214819D01*
X71024762Y-112214819D02*
X71024762Y-111214819D01*
X71024762Y-111214819D02*
X70929524Y-111357676D01*
X70929524Y-111357676D02*
X70834286Y-111452914D01*
X70834286Y-111452914D02*
X70739048Y-111500533D01*
X71929524Y-111214819D02*
X72024762Y-111214819D01*
X72024762Y-111214819D02*
X72120000Y-111262438D01*
X72120000Y-111262438D02*
X72167619Y-111310057D01*
X72167619Y-111310057D02*
X72215238Y-111405295D01*
X72215238Y-111405295D02*
X72262857Y-111595771D01*
X72262857Y-111595771D02*
X72262857Y-111833866D01*
X72262857Y-111833866D02*
X72215238Y-112024342D01*
X72215238Y-112024342D02*
X72167619Y-112119580D01*
X72167619Y-112119580D02*
X72120000Y-112167200D01*
X72120000Y-112167200D02*
X72024762Y-112214819D01*
X72024762Y-112214819D02*
X71929524Y-112214819D01*
X71929524Y-112214819D02*
X71834286Y-112167200D01*
X71834286Y-112167200D02*
X71786667Y-112119580D01*
X71786667Y-112119580D02*
X71739048Y-112024342D01*
X71739048Y-112024342D02*
X71691429Y-111833866D01*
X71691429Y-111833866D02*
X71691429Y-111595771D01*
X71691429Y-111595771D02*
X71739048Y-111405295D01*
X71739048Y-111405295D02*
X71786667Y-111310057D01*
X71786667Y-111310057D02*
X71834286Y-111262438D01*
X71834286Y-111262438D02*
X71929524Y-111214819D01*
X129104819Y-110509772D02*
X128628628Y-110843105D01*
X129104819Y-111081200D02*
X128104819Y-111081200D01*
X128104819Y-111081200D02*
X128104819Y-110700248D01*
X128104819Y-110700248D02*
X128152438Y-110605010D01*
X128152438Y-110605010D02*
X128200057Y-110557391D01*
X128200057Y-110557391D02*
X128295295Y-110509772D01*
X128295295Y-110509772D02*
X128438152Y-110509772D01*
X128438152Y-110509772D02*
X128533390Y-110557391D01*
X128533390Y-110557391D02*
X128581009Y-110605010D01*
X128581009Y-110605010D02*
X128628628Y-110700248D01*
X128628628Y-110700248D02*
X128628628Y-111081200D01*
X129104819Y-109557391D02*
X129104819Y-110128819D01*
X129104819Y-109843105D02*
X128104819Y-109843105D01*
X128104819Y-109843105D02*
X128247676Y-109938343D01*
X128247676Y-109938343D02*
X128342914Y-110033581D01*
X128342914Y-110033581D02*
X128390533Y-110128819D01*
X128104819Y-109224057D02*
X128104819Y-108605010D01*
X128104819Y-108605010D02*
X128485771Y-108938343D01*
X128485771Y-108938343D02*
X128485771Y-108795486D01*
X128485771Y-108795486D02*
X128533390Y-108700248D01*
X128533390Y-108700248D02*
X128581009Y-108652629D01*
X128581009Y-108652629D02*
X128676247Y-108605010D01*
X128676247Y-108605010D02*
X128914342Y-108605010D01*
X128914342Y-108605010D02*
X129009580Y-108652629D01*
X129009580Y-108652629D02*
X129057200Y-108700248D01*
X129057200Y-108700248D02*
X129104819Y-108795486D01*
X129104819Y-108795486D02*
X129104819Y-109081200D01*
X129104819Y-109081200D02*
X129057200Y-109176438D01*
X129057200Y-109176438D02*
X129009580Y-109224057D01*
X89645833Y-105264234D02*
X89312500Y-104788043D01*
X89074405Y-105264234D02*
X89074405Y-104264234D01*
X89074405Y-104264234D02*
X89455357Y-104264234D01*
X89455357Y-104264234D02*
X89550595Y-104311853D01*
X89550595Y-104311853D02*
X89598214Y-104359472D01*
X89598214Y-104359472D02*
X89645833Y-104454710D01*
X89645833Y-104454710D02*
X89645833Y-104597567D01*
X89645833Y-104597567D02*
X89598214Y-104692805D01*
X89598214Y-104692805D02*
X89550595Y-104740424D01*
X89550595Y-104740424D02*
X89455357Y-104788043D01*
X89455357Y-104788043D02*
X89074405Y-104788043D01*
X89979167Y-104264234D02*
X90645833Y-104264234D01*
X90645833Y-104264234D02*
X90217262Y-105264234D01*
X110003333Y-103639580D02*
X109955714Y-103687200D01*
X109955714Y-103687200D02*
X109812857Y-103734819D01*
X109812857Y-103734819D02*
X109717619Y-103734819D01*
X109717619Y-103734819D02*
X109574762Y-103687200D01*
X109574762Y-103687200D02*
X109479524Y-103591961D01*
X109479524Y-103591961D02*
X109431905Y-103496723D01*
X109431905Y-103496723D02*
X109384286Y-103306247D01*
X109384286Y-103306247D02*
X109384286Y-103163390D01*
X109384286Y-103163390D02*
X109431905Y-102972914D01*
X109431905Y-102972914D02*
X109479524Y-102877676D01*
X109479524Y-102877676D02*
X109574762Y-102782438D01*
X109574762Y-102782438D02*
X109717619Y-102734819D01*
X109717619Y-102734819D02*
X109812857Y-102734819D01*
X109812857Y-102734819D02*
X109955714Y-102782438D01*
X109955714Y-102782438D02*
X110003333Y-102830057D01*
X110860476Y-103068152D02*
X110860476Y-103734819D01*
X110622381Y-102687200D02*
X110384286Y-103401485D01*
X110384286Y-103401485D02*
X111003333Y-103401485D01*
X81407667Y-98677615D02*
X81550524Y-98725234D01*
X81550524Y-98725234D02*
X81788619Y-98725234D01*
X81788619Y-98725234D02*
X81883857Y-98677615D01*
X81883857Y-98677615D02*
X81931476Y-98629995D01*
X81931476Y-98629995D02*
X81979095Y-98534757D01*
X81979095Y-98534757D02*
X81979095Y-98439519D01*
X81979095Y-98439519D02*
X81931476Y-98344281D01*
X81931476Y-98344281D02*
X81883857Y-98296662D01*
X81883857Y-98296662D02*
X81788619Y-98249043D01*
X81788619Y-98249043D02*
X81598143Y-98201424D01*
X81598143Y-98201424D02*
X81502905Y-98153805D01*
X81502905Y-98153805D02*
X81455286Y-98106186D01*
X81455286Y-98106186D02*
X81407667Y-98010948D01*
X81407667Y-98010948D02*
X81407667Y-97915710D01*
X81407667Y-97915710D02*
X81455286Y-97820472D01*
X81455286Y-97820472D02*
X81502905Y-97772853D01*
X81502905Y-97772853D02*
X81598143Y-97725234D01*
X81598143Y-97725234D02*
X81836238Y-97725234D01*
X81836238Y-97725234D02*
X81979095Y-97772853D01*
X82312429Y-97725234D02*
X82550524Y-98725234D01*
X82550524Y-98725234D02*
X82741000Y-98010948D01*
X82741000Y-98010948D02*
X82931476Y-98725234D01*
X82931476Y-98725234D02*
X83169572Y-97725234D01*
X84074333Y-98725234D02*
X83502905Y-98725234D01*
X83788619Y-98725234D02*
X83788619Y-97725234D01*
X83788619Y-97725234D02*
X83693381Y-97868091D01*
X83693381Y-97868091D02*
X83598143Y-97963329D01*
X83598143Y-97963329D02*
X83502905Y-98010948D01*
X104738333Y-100303995D02*
X104690714Y-100351615D01*
X104690714Y-100351615D02*
X104547857Y-100399234D01*
X104547857Y-100399234D02*
X104452619Y-100399234D01*
X104452619Y-100399234D02*
X104309762Y-100351615D01*
X104309762Y-100351615D02*
X104214524Y-100256376D01*
X104214524Y-100256376D02*
X104166905Y-100161138D01*
X104166905Y-100161138D02*
X104119286Y-99970662D01*
X104119286Y-99970662D02*
X104119286Y-99827805D01*
X104119286Y-99827805D02*
X104166905Y-99637329D01*
X104166905Y-99637329D02*
X104214524Y-99542091D01*
X104214524Y-99542091D02*
X104309762Y-99446853D01*
X104309762Y-99446853D02*
X104452619Y-99399234D01*
X104452619Y-99399234D02*
X104547857Y-99399234D01*
X104547857Y-99399234D02*
X104690714Y-99446853D01*
X104690714Y-99446853D02*
X104738333Y-99494472D01*
X105071667Y-99399234D02*
X105690714Y-99399234D01*
X105690714Y-99399234D02*
X105357381Y-99780186D01*
X105357381Y-99780186D02*
X105500238Y-99780186D01*
X105500238Y-99780186D02*
X105595476Y-99827805D01*
X105595476Y-99827805D02*
X105643095Y-99875424D01*
X105643095Y-99875424D02*
X105690714Y-99970662D01*
X105690714Y-99970662D02*
X105690714Y-100208757D01*
X105690714Y-100208757D02*
X105643095Y-100303995D01*
X105643095Y-100303995D02*
X105595476Y-100351615D01*
X105595476Y-100351615D02*
X105500238Y-100399234D01*
X105500238Y-100399234D02*
X105214524Y-100399234D01*
X105214524Y-100399234D02*
X105119286Y-100351615D01*
X105119286Y-100351615D02*
X105071667Y-100303995D01*
X121753333Y-102054819D02*
X121420000Y-101578628D01*
X121181905Y-102054819D02*
X121181905Y-101054819D01*
X121181905Y-101054819D02*
X121562857Y-101054819D01*
X121562857Y-101054819D02*
X121658095Y-101102438D01*
X121658095Y-101102438D02*
X121705714Y-101150057D01*
X121705714Y-101150057D02*
X121753333Y-101245295D01*
X121753333Y-101245295D02*
X121753333Y-101388152D01*
X121753333Y-101388152D02*
X121705714Y-101483390D01*
X121705714Y-101483390D02*
X121658095Y-101531009D01*
X121658095Y-101531009D02*
X121562857Y-101578628D01*
X121562857Y-101578628D02*
X121181905Y-101578628D01*
X122658095Y-101054819D02*
X122181905Y-101054819D01*
X122181905Y-101054819D02*
X122134286Y-101531009D01*
X122134286Y-101531009D02*
X122181905Y-101483390D01*
X122181905Y-101483390D02*
X122277143Y-101435771D01*
X122277143Y-101435771D02*
X122515238Y-101435771D01*
X122515238Y-101435771D02*
X122610476Y-101483390D01*
X122610476Y-101483390D02*
X122658095Y-101531009D01*
X122658095Y-101531009D02*
X122705714Y-101626247D01*
X122705714Y-101626247D02*
X122705714Y-101864342D01*
X122705714Y-101864342D02*
X122658095Y-101959580D01*
X122658095Y-101959580D02*
X122610476Y-102007200D01*
X122610476Y-102007200D02*
X122515238Y-102054819D01*
X122515238Y-102054819D02*
X122277143Y-102054819D01*
X122277143Y-102054819D02*
X122181905Y-102007200D01*
X122181905Y-102007200D02*
X122134286Y-101959580D01*
X135517142Y-101959580D02*
X135469523Y-102007200D01*
X135469523Y-102007200D02*
X135326666Y-102054819D01*
X135326666Y-102054819D02*
X135231428Y-102054819D01*
X135231428Y-102054819D02*
X135088571Y-102007200D01*
X135088571Y-102007200D02*
X134993333Y-101911961D01*
X134993333Y-101911961D02*
X134945714Y-101816723D01*
X134945714Y-101816723D02*
X134898095Y-101626247D01*
X134898095Y-101626247D02*
X134898095Y-101483390D01*
X134898095Y-101483390D02*
X134945714Y-101292914D01*
X134945714Y-101292914D02*
X134993333Y-101197676D01*
X134993333Y-101197676D02*
X135088571Y-101102438D01*
X135088571Y-101102438D02*
X135231428Y-101054819D01*
X135231428Y-101054819D02*
X135326666Y-101054819D01*
X135326666Y-101054819D02*
X135469523Y-101102438D01*
X135469523Y-101102438D02*
X135517142Y-101150057D01*
X136469523Y-102054819D02*
X135898095Y-102054819D01*
X136183809Y-102054819D02*
X136183809Y-101054819D01*
X136183809Y-101054819D02*
X136088571Y-101197676D01*
X136088571Y-101197676D02*
X135993333Y-101292914D01*
X135993333Y-101292914D02*
X135898095Y-101340533D01*
X137421904Y-102054819D02*
X136850476Y-102054819D01*
X137136190Y-102054819D02*
X137136190Y-101054819D01*
X137136190Y-101054819D02*
X137040952Y-101197676D01*
X137040952Y-101197676D02*
X136945714Y-101292914D01*
X136945714Y-101292914D02*
X136850476Y-101340533D01*
X73493333Y-129994819D02*
X73160000Y-129518628D01*
X72921905Y-129994819D02*
X72921905Y-128994819D01*
X72921905Y-128994819D02*
X73302857Y-128994819D01*
X73302857Y-128994819D02*
X73398095Y-129042438D01*
X73398095Y-129042438D02*
X73445714Y-129090057D01*
X73445714Y-129090057D02*
X73493333Y-129185295D01*
X73493333Y-129185295D02*
X73493333Y-129328152D01*
X73493333Y-129328152D02*
X73445714Y-129423390D01*
X73445714Y-129423390D02*
X73398095Y-129471009D01*
X73398095Y-129471009D02*
X73302857Y-129518628D01*
X73302857Y-129518628D02*
X72921905Y-129518628D01*
X74445714Y-129994819D02*
X73874286Y-129994819D01*
X74160000Y-129994819D02*
X74160000Y-128994819D01*
X74160000Y-128994819D02*
X74064762Y-129137676D01*
X74064762Y-129137676D02*
X73969524Y-129232914D01*
X73969524Y-129232914D02*
X73874286Y-129280533D01*
X83986666Y-119020419D02*
X84034285Y-118972800D01*
X84034285Y-118972800D02*
X84177142Y-118925180D01*
X84177142Y-118925180D02*
X84272380Y-118925180D01*
X84272380Y-118925180D02*
X84415237Y-118972800D01*
X84415237Y-118972800D02*
X84510475Y-119068038D01*
X84510475Y-119068038D02*
X84558094Y-119163276D01*
X84558094Y-119163276D02*
X84605713Y-119353752D01*
X84605713Y-119353752D02*
X84605713Y-119496609D01*
X84605713Y-119496609D02*
X84558094Y-119687085D01*
X84558094Y-119687085D02*
X84510475Y-119782323D01*
X84510475Y-119782323D02*
X84415237Y-119877561D01*
X84415237Y-119877561D02*
X84272380Y-119925180D01*
X84272380Y-119925180D02*
X84177142Y-119925180D01*
X84177142Y-119925180D02*
X84034285Y-119877561D01*
X84034285Y-119877561D02*
X83986666Y-119829942D01*
X83653332Y-119925180D02*
X82986666Y-119925180D01*
X82986666Y-119925180D02*
X83415237Y-118925180D01*
X118300833Y-137524234D02*
X117967500Y-137048043D01*
X117729405Y-137524234D02*
X117729405Y-136524234D01*
X117729405Y-136524234D02*
X118110357Y-136524234D01*
X118110357Y-136524234D02*
X118205595Y-136571853D01*
X118205595Y-136571853D02*
X118253214Y-136619472D01*
X118253214Y-136619472D02*
X118300833Y-136714710D01*
X118300833Y-136714710D02*
X118300833Y-136857567D01*
X118300833Y-136857567D02*
X118253214Y-136952805D01*
X118253214Y-136952805D02*
X118205595Y-137000424D01*
X118205595Y-137000424D02*
X118110357Y-137048043D01*
X118110357Y-137048043D02*
X117729405Y-137048043D01*
X119157976Y-136857567D02*
X119157976Y-137524234D01*
X118919881Y-136476615D02*
X118681786Y-137190900D01*
X118681786Y-137190900D02*
X119300833Y-137190900D01*
X116078095Y-121374819D02*
X116078095Y-122184342D01*
X116078095Y-122184342D02*
X116125714Y-122279580D01*
X116125714Y-122279580D02*
X116173333Y-122327200D01*
X116173333Y-122327200D02*
X116268571Y-122374819D01*
X116268571Y-122374819D02*
X116459047Y-122374819D01*
X116459047Y-122374819D02*
X116554285Y-122327200D01*
X116554285Y-122327200D02*
X116601904Y-122279580D01*
X116601904Y-122279580D02*
X116649523Y-122184342D01*
X116649523Y-122184342D02*
X116649523Y-121374819D01*
X117030476Y-121374819D02*
X117649523Y-121374819D01*
X117649523Y-121374819D02*
X117316190Y-121755771D01*
X117316190Y-121755771D02*
X117459047Y-121755771D01*
X117459047Y-121755771D02*
X117554285Y-121803390D01*
X117554285Y-121803390D02*
X117601904Y-121851009D01*
X117601904Y-121851009D02*
X117649523Y-121946247D01*
X117649523Y-121946247D02*
X117649523Y-122184342D01*
X117649523Y-122184342D02*
X117601904Y-122279580D01*
X117601904Y-122279580D02*
X117554285Y-122327200D01*
X117554285Y-122327200D02*
X117459047Y-122374819D01*
X117459047Y-122374819D02*
X117173333Y-122374819D01*
X117173333Y-122374819D02*
X117078095Y-122327200D01*
X117078095Y-122327200D02*
X117030476Y-122279580D01*
X105609819Y-111727748D02*
X106324104Y-111727748D01*
X106324104Y-111727748D02*
X106466961Y-111775367D01*
X106466961Y-111775367D02*
X106562200Y-111870605D01*
X106562200Y-111870605D02*
X106609819Y-112013462D01*
X106609819Y-112013462D02*
X106609819Y-112108700D01*
X106609819Y-111203938D02*
X106609819Y-111013462D01*
X106609819Y-111013462D02*
X106562200Y-110918224D01*
X106562200Y-110918224D02*
X106514580Y-110870605D01*
X106514580Y-110870605D02*
X106371723Y-110775367D01*
X106371723Y-110775367D02*
X106181247Y-110727748D01*
X106181247Y-110727748D02*
X105800295Y-110727748D01*
X105800295Y-110727748D02*
X105705057Y-110775367D01*
X105705057Y-110775367D02*
X105657438Y-110822986D01*
X105657438Y-110822986D02*
X105609819Y-110918224D01*
X105609819Y-110918224D02*
X105609819Y-111108700D01*
X105609819Y-111108700D02*
X105657438Y-111203938D01*
X105657438Y-111203938D02*
X105705057Y-111251557D01*
X105705057Y-111251557D02*
X105800295Y-111299176D01*
X105800295Y-111299176D02*
X106038390Y-111299176D01*
X106038390Y-111299176D02*
X106133628Y-111251557D01*
X106133628Y-111251557D02*
X106181247Y-111203938D01*
X106181247Y-111203938D02*
X106228866Y-111108700D01*
X106228866Y-111108700D02*
X106228866Y-110918224D01*
X106228866Y-110918224D02*
X106181247Y-110822986D01*
X106181247Y-110822986D02*
X106133628Y-110775367D01*
X106133628Y-110775367D02*
X106038390Y-110727748D01*
D12*
X84184895Y-141433333D02*
X84184895Y-141890476D01*
X84184895Y-141661904D02*
X83384895Y-141661904D01*
X83384895Y-141661904D02*
X83499180Y-141738095D01*
X83499180Y-141738095D02*
X83575371Y-141814285D01*
X83575371Y-141814285D02*
X83613466Y-141890476D01*
X83384895Y-140747618D02*
X83384895Y-140899999D01*
X83384895Y-140899999D02*
X83422990Y-140976190D01*
X83422990Y-140976190D02*
X83461085Y-141014285D01*
X83461085Y-141014285D02*
X83575371Y-141090475D01*
X83575371Y-141090475D02*
X83727752Y-141128571D01*
X83727752Y-141128571D02*
X84032514Y-141128571D01*
X84032514Y-141128571D02*
X84108704Y-141090475D01*
X84108704Y-141090475D02*
X84146800Y-141052380D01*
X84146800Y-141052380D02*
X84184895Y-140976190D01*
X84184895Y-140976190D02*
X84184895Y-140823809D01*
X84184895Y-140823809D02*
X84146800Y-140747618D01*
X84146800Y-140747618D02*
X84108704Y-140709523D01*
X84108704Y-140709523D02*
X84032514Y-140671428D01*
X84032514Y-140671428D02*
X83842038Y-140671428D01*
X83842038Y-140671428D02*
X83765847Y-140709523D01*
X83765847Y-140709523D02*
X83727752Y-140747618D01*
X83727752Y-140747618D02*
X83689657Y-140823809D01*
X83689657Y-140823809D02*
X83689657Y-140976190D01*
X83689657Y-140976190D02*
X83727752Y-141052380D01*
X83727752Y-141052380D02*
X83765847Y-141090475D01*
X83765847Y-141090475D02*
X83842038Y-141128571D01*
X84184895Y-140328570D02*
X83384895Y-140328570D01*
X83384895Y-140328570D02*
X83956323Y-140061904D01*
X83956323Y-140061904D02*
X83384895Y-139795237D01*
X83384895Y-139795237D02*
X84184895Y-139795237D01*
X84184895Y-139414284D02*
X83384895Y-139414284D01*
X83765847Y-139414284D02*
X83765847Y-138957141D01*
X84184895Y-138957141D02*
X83384895Y-138957141D01*
X83651561Y-138652380D02*
X83651561Y-138233332D01*
X83651561Y-138233332D02*
X84184895Y-138652380D01*
X84184895Y-138652380D02*
X84184895Y-138233332D01*
X84184895Y-137509523D02*
X84184895Y-137966666D01*
X84184895Y-137738094D02*
X83384895Y-137738094D01*
X83384895Y-137738094D02*
X83499180Y-137814285D01*
X83499180Y-137814285D02*
X83575371Y-137890475D01*
X83575371Y-137890475D02*
X83613466Y-137966666D01*
D10*
X125269642Y-96884234D02*
X124936309Y-96408043D01*
X124698214Y-96884234D02*
X124698214Y-95884234D01*
X124698214Y-95884234D02*
X125079166Y-95884234D01*
X125079166Y-95884234D02*
X125174404Y-95931853D01*
X125174404Y-95931853D02*
X125222023Y-95979472D01*
X125222023Y-95979472D02*
X125269642Y-96074710D01*
X125269642Y-96074710D02*
X125269642Y-96217567D01*
X125269642Y-96217567D02*
X125222023Y-96312805D01*
X125222023Y-96312805D02*
X125174404Y-96360424D01*
X125174404Y-96360424D02*
X125079166Y-96408043D01*
X125079166Y-96408043D02*
X124698214Y-96408043D01*
X126222023Y-96884234D02*
X125650595Y-96884234D01*
X125936309Y-96884234D02*
X125936309Y-95884234D01*
X125936309Y-95884234D02*
X125841071Y-96027091D01*
X125841071Y-96027091D02*
X125745833Y-96122329D01*
X125745833Y-96122329D02*
X125650595Y-96169948D01*
X126793452Y-96312805D02*
X126698214Y-96265186D01*
X126698214Y-96265186D02*
X126650595Y-96217567D01*
X126650595Y-96217567D02*
X126602976Y-96122329D01*
X126602976Y-96122329D02*
X126602976Y-96074710D01*
X126602976Y-96074710D02*
X126650595Y-95979472D01*
X126650595Y-95979472D02*
X126698214Y-95931853D01*
X126698214Y-95931853D02*
X126793452Y-95884234D01*
X126793452Y-95884234D02*
X126983928Y-95884234D01*
X126983928Y-95884234D02*
X127079166Y-95931853D01*
X127079166Y-95931853D02*
X127126785Y-95979472D01*
X127126785Y-95979472D02*
X127174404Y-96074710D01*
X127174404Y-96074710D02*
X127174404Y-96122329D01*
X127174404Y-96122329D02*
X127126785Y-96217567D01*
X127126785Y-96217567D02*
X127079166Y-96265186D01*
X127079166Y-96265186D02*
X126983928Y-96312805D01*
X126983928Y-96312805D02*
X126793452Y-96312805D01*
X126793452Y-96312805D02*
X126698214Y-96360424D01*
X126698214Y-96360424D02*
X126650595Y-96408043D01*
X126650595Y-96408043D02*
X126602976Y-96503281D01*
X126602976Y-96503281D02*
X126602976Y-96693757D01*
X126602976Y-96693757D02*
X126650595Y-96788995D01*
X126650595Y-96788995D02*
X126698214Y-96836615D01*
X126698214Y-96836615D02*
X126793452Y-96884234D01*
X126793452Y-96884234D02*
X126983928Y-96884234D01*
X126983928Y-96884234D02*
X127079166Y-96836615D01*
X127079166Y-96836615D02*
X127126785Y-96788995D01*
X127126785Y-96788995D02*
X127174404Y-96693757D01*
X127174404Y-96693757D02*
X127174404Y-96503281D01*
X127174404Y-96503281D02*
X127126785Y-96408043D01*
X127126785Y-96408043D02*
X127079166Y-96360424D01*
X127079166Y-96360424D02*
X126983928Y-96312805D01*
X83653333Y-117199580D02*
X83605714Y-117247200D01*
X83605714Y-117247200D02*
X83462857Y-117294819D01*
X83462857Y-117294819D02*
X83367619Y-117294819D01*
X83367619Y-117294819D02*
X83224762Y-117247200D01*
X83224762Y-117247200D02*
X83129524Y-117151961D01*
X83129524Y-117151961D02*
X83081905Y-117056723D01*
X83081905Y-117056723D02*
X83034286Y-116866247D01*
X83034286Y-116866247D02*
X83034286Y-116723390D01*
X83034286Y-116723390D02*
X83081905Y-116532914D01*
X83081905Y-116532914D02*
X83129524Y-116437676D01*
X83129524Y-116437676D02*
X83224762Y-116342438D01*
X83224762Y-116342438D02*
X83367619Y-116294819D01*
X83367619Y-116294819D02*
X83462857Y-116294819D01*
X83462857Y-116294819D02*
X83605714Y-116342438D01*
X83605714Y-116342438D02*
X83653333Y-116390057D01*
X84224762Y-116723390D02*
X84129524Y-116675771D01*
X84129524Y-116675771D02*
X84081905Y-116628152D01*
X84081905Y-116628152D02*
X84034286Y-116532914D01*
X84034286Y-116532914D02*
X84034286Y-116485295D01*
X84034286Y-116485295D02*
X84081905Y-116390057D01*
X84081905Y-116390057D02*
X84129524Y-116342438D01*
X84129524Y-116342438D02*
X84224762Y-116294819D01*
X84224762Y-116294819D02*
X84415238Y-116294819D01*
X84415238Y-116294819D02*
X84510476Y-116342438D01*
X84510476Y-116342438D02*
X84558095Y-116390057D01*
X84558095Y-116390057D02*
X84605714Y-116485295D01*
X84605714Y-116485295D02*
X84605714Y-116532914D01*
X84605714Y-116532914D02*
X84558095Y-116628152D01*
X84558095Y-116628152D02*
X84510476Y-116675771D01*
X84510476Y-116675771D02*
X84415238Y-116723390D01*
X84415238Y-116723390D02*
X84224762Y-116723390D01*
X84224762Y-116723390D02*
X84129524Y-116771009D01*
X84129524Y-116771009D02*
X84081905Y-116818628D01*
X84081905Y-116818628D02*
X84034286Y-116913866D01*
X84034286Y-116913866D02*
X84034286Y-117104342D01*
X84034286Y-117104342D02*
X84081905Y-117199580D01*
X84081905Y-117199580D02*
X84129524Y-117247200D01*
X84129524Y-117247200D02*
X84224762Y-117294819D01*
X84224762Y-117294819D02*
X84415238Y-117294819D01*
X84415238Y-117294819D02*
X84510476Y-117247200D01*
X84510476Y-117247200D02*
X84558095Y-117199580D01*
X84558095Y-117199580D02*
X84605714Y-117104342D01*
X84605714Y-117104342D02*
X84605714Y-116913866D01*
X84605714Y-116913866D02*
X84558095Y-116818628D01*
X84558095Y-116818628D02*
X84510476Y-116771009D01*
X84510476Y-116771009D02*
X84415238Y-116723390D01*
X121753333Y-99514819D02*
X121420000Y-99038628D01*
X121181905Y-99514819D02*
X121181905Y-98514819D01*
X121181905Y-98514819D02*
X121562857Y-98514819D01*
X121562857Y-98514819D02*
X121658095Y-98562438D01*
X121658095Y-98562438D02*
X121705714Y-98610057D01*
X121705714Y-98610057D02*
X121753333Y-98705295D01*
X121753333Y-98705295D02*
X121753333Y-98848152D01*
X121753333Y-98848152D02*
X121705714Y-98943390D01*
X121705714Y-98943390D02*
X121658095Y-98991009D01*
X121658095Y-98991009D02*
X121562857Y-99038628D01*
X121562857Y-99038628D02*
X121181905Y-99038628D01*
X122610476Y-98514819D02*
X122420000Y-98514819D01*
X122420000Y-98514819D02*
X122324762Y-98562438D01*
X122324762Y-98562438D02*
X122277143Y-98610057D01*
X122277143Y-98610057D02*
X122181905Y-98752914D01*
X122181905Y-98752914D02*
X122134286Y-98943390D01*
X122134286Y-98943390D02*
X122134286Y-99324342D01*
X122134286Y-99324342D02*
X122181905Y-99419580D01*
X122181905Y-99419580D02*
X122229524Y-99467200D01*
X122229524Y-99467200D02*
X122324762Y-99514819D01*
X122324762Y-99514819D02*
X122515238Y-99514819D01*
X122515238Y-99514819D02*
X122610476Y-99467200D01*
X122610476Y-99467200D02*
X122658095Y-99419580D01*
X122658095Y-99419580D02*
X122705714Y-99324342D01*
X122705714Y-99324342D02*
X122705714Y-99086247D01*
X122705714Y-99086247D02*
X122658095Y-98991009D01*
X122658095Y-98991009D02*
X122610476Y-98943390D01*
X122610476Y-98943390D02*
X122515238Y-98895771D01*
X122515238Y-98895771D02*
X122324762Y-98895771D01*
X122324762Y-98895771D02*
X122229524Y-98943390D01*
X122229524Y-98943390D02*
X122181905Y-98991009D01*
X122181905Y-98991009D02*
X122134286Y-99086247D01*
X141694819Y-115109523D02*
X142409104Y-115109523D01*
X142409104Y-115109523D02*
X142551961Y-115157142D01*
X142551961Y-115157142D02*
X142647200Y-115252380D01*
X142647200Y-115252380D02*
X142694819Y-115395237D01*
X142694819Y-115395237D02*
X142694819Y-115490475D01*
X142694819Y-114109523D02*
X142694819Y-114680951D01*
X142694819Y-114395237D02*
X141694819Y-114395237D01*
X141694819Y-114395237D02*
X141837676Y-114490475D01*
X141837676Y-114490475D02*
X141932914Y-114585713D01*
X141932914Y-114585713D02*
X141980533Y-114680951D01*
X141694819Y-113776189D02*
X141694819Y-113157142D01*
X141694819Y-113157142D02*
X142075771Y-113490475D01*
X142075771Y-113490475D02*
X142075771Y-113347618D01*
X142075771Y-113347618D02*
X142123390Y-113252380D01*
X142123390Y-113252380D02*
X142171009Y-113204761D01*
X142171009Y-113204761D02*
X142266247Y-113157142D01*
X142266247Y-113157142D02*
X142504342Y-113157142D01*
X142504342Y-113157142D02*
X142599580Y-113204761D01*
X142599580Y-113204761D02*
X142647200Y-113252380D01*
X142647200Y-113252380D02*
X142694819Y-113347618D01*
X142694819Y-113347618D02*
X142694819Y-113633332D01*
X142694819Y-113633332D02*
X142647200Y-113728570D01*
X142647200Y-113728570D02*
X142599580Y-113776189D01*
X94805595Y-124204234D02*
X94805595Y-125013757D01*
X94805595Y-125013757D02*
X94853214Y-125108995D01*
X94853214Y-125108995D02*
X94900833Y-125156615D01*
X94900833Y-125156615D02*
X94996071Y-125204234D01*
X94996071Y-125204234D02*
X95186547Y-125204234D01*
X95186547Y-125204234D02*
X95281785Y-125156615D01*
X95281785Y-125156615D02*
X95329404Y-125108995D01*
X95329404Y-125108995D02*
X95377023Y-125013757D01*
X95377023Y-125013757D02*
X95377023Y-124204234D01*
X96281785Y-124537567D02*
X96281785Y-125204234D01*
X96043690Y-124156615D02*
X95805595Y-124870900D01*
X95805595Y-124870900D02*
X96424642Y-124870900D01*
X91440000Y-106134819D02*
X91440000Y-106372914D01*
X91201905Y-106277676D02*
X91440000Y-106372914D01*
X91440000Y-106372914D02*
X91678095Y-106277676D01*
X91297143Y-106563390D02*
X91440000Y-106372914D01*
X91440000Y-106372914D02*
X91582857Y-106563390D01*
X93980000Y-106134819D02*
X93980000Y-106372914D01*
X93741905Y-106277676D02*
X93980000Y-106372914D01*
X93980000Y-106372914D02*
X94218095Y-106277676D01*
X93837143Y-106563390D02*
X93980000Y-106372914D01*
X93980000Y-106372914D02*
X94122857Y-106563390D01*
X104409642Y-114664234D02*
X104076309Y-114188043D01*
X103838214Y-114664234D02*
X103838214Y-113664234D01*
X103838214Y-113664234D02*
X104219166Y-113664234D01*
X104219166Y-113664234D02*
X104314404Y-113711853D01*
X104314404Y-113711853D02*
X104362023Y-113759472D01*
X104362023Y-113759472D02*
X104409642Y-113854710D01*
X104409642Y-113854710D02*
X104409642Y-113997567D01*
X104409642Y-113997567D02*
X104362023Y-114092805D01*
X104362023Y-114092805D02*
X104314404Y-114140424D01*
X104314404Y-114140424D02*
X104219166Y-114188043D01*
X104219166Y-114188043D02*
X103838214Y-114188043D01*
X105362023Y-114664234D02*
X104790595Y-114664234D01*
X105076309Y-114664234D02*
X105076309Y-113664234D01*
X105076309Y-113664234D02*
X104981071Y-113807091D01*
X104981071Y-113807091D02*
X104885833Y-113902329D01*
X104885833Y-113902329D02*
X104790595Y-113949948D01*
X105838214Y-114664234D02*
X106028690Y-114664234D01*
X106028690Y-114664234D02*
X106123928Y-114616615D01*
X106123928Y-114616615D02*
X106171547Y-114568995D01*
X106171547Y-114568995D02*
X106266785Y-114426138D01*
X106266785Y-114426138D02*
X106314404Y-114235662D01*
X106314404Y-114235662D02*
X106314404Y-113854710D01*
X106314404Y-113854710D02*
X106266785Y-113759472D01*
X106266785Y-113759472D02*
X106219166Y-113711853D01*
X106219166Y-113711853D02*
X106123928Y-113664234D01*
X106123928Y-113664234D02*
X105933452Y-113664234D01*
X105933452Y-113664234D02*
X105838214Y-113711853D01*
X105838214Y-113711853D02*
X105790595Y-113759472D01*
X105790595Y-113759472D02*
X105742976Y-113854710D01*
X105742976Y-113854710D02*
X105742976Y-114092805D01*
X105742976Y-114092805D02*
X105790595Y-114188043D01*
X105790595Y-114188043D02*
X105838214Y-114235662D01*
X105838214Y-114235662D02*
X105933452Y-114283281D01*
X105933452Y-114283281D02*
X106123928Y-114283281D01*
X106123928Y-114283281D02*
X106219166Y-114235662D01*
X106219166Y-114235662D02*
X106266785Y-114188043D01*
X106266785Y-114188043D02*
X106314404Y-114092805D01*
X108674819Y-142573333D02*
X109389104Y-142573333D01*
X109389104Y-142573333D02*
X109531961Y-142620952D01*
X109531961Y-142620952D02*
X109627200Y-142716190D01*
X109627200Y-142716190D02*
X109674819Y-142859047D01*
X109674819Y-142859047D02*
X109674819Y-142954285D01*
X109674819Y-141573333D02*
X109674819Y-142144761D01*
X109674819Y-141859047D02*
X108674819Y-141859047D01*
X108674819Y-141859047D02*
X108817676Y-141954285D01*
X108817676Y-141954285D02*
X108912914Y-142049523D01*
X108912914Y-142049523D02*
X108960533Y-142144761D01*
X137512491Y-131494347D02*
X138227890Y-131494347D01*
X138227890Y-131494347D02*
X138370970Y-131542041D01*
X138370970Y-131542041D02*
X138466357Y-131637427D01*
X138466357Y-131637427D02*
X138514050Y-131780507D01*
X138514050Y-131780507D02*
X138514050Y-131875894D01*
X137607877Y-131065107D02*
X137560184Y-131017414D01*
X137560184Y-131017414D02*
X137512491Y-130922028D01*
X137512491Y-130922028D02*
X137512491Y-130683561D01*
X137512491Y-130683561D02*
X137560184Y-130588175D01*
X137560184Y-130588175D02*
X137607877Y-130540481D01*
X137607877Y-130540481D02*
X137703264Y-130492788D01*
X137703264Y-130492788D02*
X137798651Y-130492788D01*
X137798651Y-130492788D02*
X137941730Y-130540481D01*
X137941730Y-130540481D02*
X138514050Y-131112801D01*
X138514050Y-131112801D02*
X138514050Y-130492788D01*
X101433333Y-97829234D02*
X101100000Y-97353043D01*
X100861905Y-97829234D02*
X100861905Y-96829234D01*
X100861905Y-96829234D02*
X101242857Y-96829234D01*
X101242857Y-96829234D02*
X101338095Y-96876853D01*
X101338095Y-96876853D02*
X101385714Y-96924472D01*
X101385714Y-96924472D02*
X101433333Y-97019710D01*
X101433333Y-97019710D02*
X101433333Y-97162567D01*
X101433333Y-97162567D02*
X101385714Y-97257805D01*
X101385714Y-97257805D02*
X101338095Y-97305424D01*
X101338095Y-97305424D02*
X101242857Y-97353043D01*
X101242857Y-97353043D02*
X100861905Y-97353043D01*
X101766667Y-96829234D02*
X102385714Y-96829234D01*
X102385714Y-96829234D02*
X102052381Y-97210186D01*
X102052381Y-97210186D02*
X102195238Y-97210186D01*
X102195238Y-97210186D02*
X102290476Y-97257805D01*
X102290476Y-97257805D02*
X102338095Y-97305424D01*
X102338095Y-97305424D02*
X102385714Y-97400662D01*
X102385714Y-97400662D02*
X102385714Y-97638757D01*
X102385714Y-97638757D02*
X102338095Y-97733995D01*
X102338095Y-97733995D02*
X102290476Y-97781615D01*
X102290476Y-97781615D02*
X102195238Y-97829234D01*
X102195238Y-97829234D02*
X101909524Y-97829234D01*
X101909524Y-97829234D02*
X101814286Y-97781615D01*
X101814286Y-97781615D02*
X101766667Y-97733995D01*
D13*
%TO.C,TP6*%
X142170000Y-104070000D02*
X139770000Y-104070000D01*
X139770000Y-104070000D02*
X139770000Y-101670000D01*
X139770000Y-101670000D02*
X142170000Y-101670000D01*
X142170000Y-101670000D02*
X142170000Y-104070000D01*
%TO.C,TP5*%
X78670000Y-152330000D02*
X76270000Y-152330000D01*
X76270000Y-152330000D02*
X76270000Y-149930000D01*
X76270000Y-149930000D02*
X78670000Y-149930000D01*
X78670000Y-149930000D02*
X78670000Y-152330000D01*
%TO.C,TP4*%
X91370000Y-156140000D02*
X88970000Y-156140000D01*
X88970000Y-156140000D02*
X88970000Y-153740000D01*
X88970000Y-153740000D02*
X91370000Y-153740000D01*
X91370000Y-153740000D02*
X91370000Y-156140000D01*
%TO.C,TP2*%
X96450000Y-97720000D02*
X94050000Y-97720000D01*
X94050000Y-97720000D02*
X94050000Y-95320000D01*
X94050000Y-95320000D02*
X96450000Y-95320000D01*
X96450000Y-95320000D02*
X96450000Y-97720000D01*
%TO.C,TP1*%
X85020000Y-112960000D02*
X82620000Y-112960000D01*
X82620000Y-112960000D02*
X82620000Y-110560000D01*
X82620000Y-110560000D02*
X85020000Y-110560000D01*
X85020000Y-110560000D02*
X85020000Y-112960000D01*
%TO.C,TP3*%
X130740000Y-102800000D02*
X128340000Y-102800000D01*
X128340000Y-102800000D02*
X128340000Y-100400000D01*
X128340000Y-100400000D02*
X130740000Y-100400000D01*
X130740000Y-100400000D02*
X130740000Y-102800000D01*
D14*
%TO.C,U2*%
X110375001Y-94774413D02*
X110925000Y-94774413D01*
X110375001Y-94934413D02*
X110375001Y-94774413D01*
X113775002Y-94934413D02*
X113775002Y-94774413D01*
X113615002Y-94774413D02*
X113775002Y-94774413D01*
X113615002Y-98174417D02*
X113775002Y-98174417D01*
X113775002Y-98174417D02*
X113775002Y-98014417D01*
X110374998Y-98174417D02*
X110534998Y-98174417D01*
X110374998Y-98174417D02*
X110374998Y-98014417D01*
%TO.C,C10*%
X88720000Y-63380000D02*
X129720000Y-63380000D01*
X129720000Y-63380000D02*
X129720000Y-48380000D01*
X129720000Y-48380000D02*
X88720000Y-48380000D01*
X88720000Y-48380000D02*
X88720000Y-63380000D01*
D12*
X88170000Y-55880000D02*
X88170000Y-55880000D01*
X88270000Y-55880000D02*
X88270000Y-55880000D01*
X88170000Y-55880000D02*
G75*
G03*
X88270000Y-55880000I50000J0D01*
G01*
X88270000Y-55880000D02*
G75*
G03*
X88170000Y-55880000I-50000J0D01*
G01*
D15*
%TO.C,C9*%
X142297400Y-82839415D02*
X143567400Y-82839415D01*
X142932400Y-82204415D02*
X142932400Y-83474415D01*
X148952200Y-82839415D02*
G75*
G03*
X148952200Y-82839415I-2628900J0D01*
G01*
D13*
%TO.C,R15*%
X143465436Y-87184415D02*
X143919564Y-87184415D01*
X143465436Y-88654415D02*
X143919564Y-88654415D01*
%TO.C,R16*%
X143465436Y-92264415D02*
X143919564Y-92264415D01*
X143465436Y-93734415D02*
X143919564Y-93734415D01*
%TO.C,C1*%
X107706252Y-93919415D02*
X107183748Y-93919415D01*
X107706252Y-92449415D02*
X107183748Y-92449415D01*
%TO.C,L1*%
X117917878Y-93420000D02*
X118717122Y-93420000D01*
X117917878Y-94540000D02*
X118717122Y-94540000D01*
D16*
%TO.C,U5*%
X114010000Y-82214415D02*
X114010000Y-92414415D01*
X109510000Y-82214415D02*
X114010000Y-82214415D01*
X114010000Y-92414415D02*
X109510000Y-92414415D01*
X109510000Y-92414415D02*
X109510000Y-82214415D01*
D14*
X111510000Y-81464415D02*
G75*
G03*
X111510000Y-81464415I-100000J0D01*
G01*
D13*
%TO.C,R11*%
X110359564Y-125195000D02*
X109905436Y-125195000D01*
X110359564Y-123725000D02*
X109905436Y-123725000D01*
D16*
%TO.C,J7*%
X59000000Y-130620000D02*
X69000000Y-130620000D01*
X59000000Y-138120000D02*
X59000000Y-130620000D01*
X69000000Y-130620000D02*
X69000000Y-138120000D01*
X69000000Y-138120000D02*
X59000000Y-138120000D01*
D14*
X58500000Y-134620000D02*
G75*
G03*
X58500000Y-134620000I-100000J0D01*
G01*
D15*
%TO.C,J11*%
X60833000Y-120243600D02*
X60833000Y-128676400D01*
X60833000Y-128676400D02*
X76327000Y-128676400D01*
X76327000Y-120243600D02*
X60833000Y-120243600D01*
X76327000Y-128676400D02*
X76327000Y-120243600D01*
D17*
X60579000Y-124460000D02*
G75*
G03*
X60579000Y-124460000I-381000J0D01*
G01*
D16*
%TO.C,J6*%
X59000000Y-140255000D02*
X69000000Y-140255000D01*
X59000000Y-147755000D02*
X59000000Y-140255000D01*
X69000000Y-140255000D02*
X69000000Y-147755000D01*
X69000000Y-147755000D02*
X59000000Y-147755000D01*
D14*
X58500000Y-144255000D02*
G75*
G03*
X58500000Y-144255000I-100000J0D01*
G01*
D13*
%TO.C,R12*%
X119607064Y-104875000D02*
X119152936Y-104875000D01*
X119607064Y-103405000D02*
X119152936Y-103405000D01*
D15*
%TO.C,C6*%
X70249100Y-138277600D02*
X70249100Y-138781907D01*
X70249100Y-140618093D02*
X70249100Y-141122400D01*
X74490900Y-138277600D02*
X70249100Y-138277600D01*
X74490900Y-138277600D02*
X74490900Y-139222653D01*
X74490900Y-140177347D02*
X74490900Y-141122400D01*
X74490900Y-141122400D02*
X70249100Y-141122400D01*
X69563300Y-139700000D02*
G75*
G03*
X69563300Y-139700000I-76200J0D01*
G01*
D13*
%TO.C,F1*%
X128742064Y-127379415D02*
X127537936Y-127379415D01*
X128742064Y-124659415D02*
X127537936Y-124659415D01*
D15*
%TO.C,IC1*%
X128562500Y-81569415D02*
X128562500Y-82215844D01*
X128562500Y-83462986D02*
X128562500Y-84755844D01*
X128562500Y-86002986D02*
X128562500Y-87295844D01*
X128562500Y-88542986D02*
X128562500Y-89835844D01*
X128562500Y-91082986D02*
X128562500Y-91729415D01*
X128562500Y-91729415D02*
X135674500Y-91729415D01*
X135674500Y-81569415D02*
X128562500Y-81569415D01*
X135674500Y-82215844D02*
X135674500Y-81569415D01*
X135674500Y-84755844D02*
X135674500Y-83462986D01*
X135674500Y-87295844D02*
X135674500Y-86002986D01*
X135674500Y-89835844D02*
X135674500Y-88542986D01*
X135674500Y-91729415D02*
X135674500Y-91082986D01*
D13*
%TO.C,R8*%
X108534564Y-121674415D02*
X108080436Y-121674415D01*
X108534564Y-120204415D02*
X108080436Y-120204415D01*
D15*
%TO.C,J3*%
X73787000Y-100736400D02*
X73787000Y-92303600D01*
X73787000Y-92303600D02*
X58293000Y-92303600D01*
X58293000Y-100736400D02*
X73787000Y-100736400D01*
X58293000Y-92303600D02*
X58293000Y-100736400D01*
D17*
X74803000Y-96520000D02*
G75*
G03*
X74803000Y-96520000I-381000J0D01*
G01*
D15*
%TO.C,C5*%
X70249100Y-133197600D02*
X70249100Y-133701907D01*
X70249100Y-135538093D02*
X70249100Y-136042400D01*
X74490900Y-133197600D02*
X70249100Y-133197600D01*
X74490900Y-133197600D02*
X74490900Y-134142653D01*
X74490900Y-135097347D02*
X74490900Y-136042400D01*
X74490900Y-136042400D02*
X70249100Y-136042400D01*
X69563300Y-134620000D02*
G75*
G03*
X69563300Y-134620000I-76200J0D01*
G01*
D16*
%TO.C,J4*%
X87740000Y-83485000D02*
X95140000Y-83485000D01*
X87740000Y-89235000D02*
X87740000Y-83485000D01*
X95140000Y-83485000D02*
X95140000Y-89235000D01*
X95140000Y-89235000D02*
X87740000Y-89235000D01*
D14*
X95980000Y-86885000D02*
G75*
G03*
X95980000Y-86885000I-100000J0D01*
G01*
D13*
%TO.C,R9*%
X109905436Y-127824415D02*
X110359564Y-127824415D01*
X109905436Y-129294415D02*
X110359564Y-129294415D01*
%TO.C,R14*%
X125685436Y-77024415D02*
X126139564Y-77024415D01*
X125685436Y-78494415D02*
X126139564Y-78494415D01*
D16*
%TO.C,J12*%
X115282500Y-105866915D02*
X125282500Y-105866915D01*
X115282500Y-113366915D02*
X115282500Y-105866915D01*
X125282500Y-105866915D02*
X125282500Y-113366915D01*
X125282500Y-113366915D02*
X115282500Y-113366915D01*
D14*
X114782500Y-109866915D02*
G75*
G03*
X114782500Y-109866915I-100000J0D01*
G01*
D15*
%TO.C,J8*%
X83693000Y-143103600D02*
X83693000Y-151536400D01*
X83693000Y-151536400D02*
X104267000Y-151536400D01*
X104267000Y-143103600D02*
X83693000Y-143103600D01*
X104267000Y-151536400D02*
X104267000Y-143103600D01*
D17*
X83439000Y-147320000D02*
G75*
G03*
X83439000Y-147320000I-381000J0D01*
G01*
D13*
%TO.C,U1*%
X128402500Y-136149415D02*
X130202500Y-136149415D01*
X128402500Y-136149415D02*
X127602500Y-136149415D01*
X128402500Y-133029415D02*
X129202500Y-133029415D01*
X128402500Y-133029415D02*
X127602500Y-133029415D01*
D15*
%TO.C,C12*%
X83604100Y-67576700D02*
X83604100Y-79743300D01*
X104355900Y-67576700D02*
X83604100Y-67576700D01*
X104355900Y-67576700D02*
X104355900Y-79743300D01*
X104355900Y-79743300D02*
X83604100Y-79743300D01*
D13*
%TO.C,R20*%
X87499564Y-136914415D02*
X87045436Y-136914415D01*
X87499564Y-135444415D02*
X87045436Y-135444415D01*
D15*
%TO.C,R17*%
X157276800Y-97054797D02*
X147523200Y-97054797D01*
X147523200Y-97054797D02*
X147523200Y-119305197D01*
X157276800Y-119305197D02*
X157276800Y-97054797D01*
X147523200Y-119305197D02*
X157276800Y-119305197D01*
D14*
%TO.C,L3*%
X62670000Y-52290000D02*
X62670000Y-69890000D01*
X79570000Y-69890000D02*
X79570000Y-52290000D01*
D16*
%TO.C,SW2*%
X119840000Y-122115415D02*
X119840000Y-119763415D01*
X119016000Y-123939415D02*
X114664000Y-123939415D01*
X119016000Y-117939415D02*
X114664000Y-117939415D01*
X113840000Y-122115415D02*
X113840000Y-119763415D01*
D14*
X121587000Y-123165415D02*
G75*
G03*
X121587000Y-123165415I-100000J0D01*
G01*
D13*
%TO.C,R10*%
X105279564Y-130275000D02*
X104825436Y-130275000D01*
X105279564Y-128805000D02*
X104825436Y-128805000D01*
%TO.C,R2*%
X80594564Y-130275000D02*
X80140436Y-130275000D01*
X80594564Y-128805000D02*
X80140436Y-128805000D01*
%TO.C,C2*%
X124198748Y-140524415D02*
X124721252Y-140524415D01*
X124198748Y-141994415D02*
X124721252Y-141994415D01*
D15*
%TO.C,J10*%
X60833000Y-110083600D02*
X60833000Y-118516400D01*
X60833000Y-118516400D02*
X76327000Y-118516400D01*
X76327000Y-110083600D02*
X60833000Y-110083600D01*
X76327000Y-118516400D02*
X76327000Y-110083600D01*
D17*
X60579000Y-114300000D02*
G75*
G03*
X60579000Y-114300000I-381000J0D01*
G01*
D13*
%TO.C,R13*%
X127735000Y-109639851D02*
X127735000Y-110093979D01*
X126265000Y-109639851D02*
X126265000Y-110093979D01*
%TO.C,R7*%
X90039564Y-103894415D02*
X89585436Y-103894415D01*
X90039564Y-102424415D02*
X89585436Y-102424415D01*
%TO.C,C4*%
X110431252Y-102335000D02*
X109908748Y-102335000D01*
X110431252Y-100865000D02*
X109908748Y-100865000D01*
D16*
%TO.C,SW1*%
X80820000Y-101983415D02*
X80820000Y-104335415D01*
X81644000Y-100159415D02*
X85996000Y-100159415D01*
X81644000Y-106159415D02*
X85996000Y-106159415D01*
X86820000Y-101983415D02*
X86820000Y-104335415D01*
D14*
X79273000Y-100933415D02*
G75*
G03*
X79273000Y-100933415I-100000J0D01*
G01*
D13*
%TO.C,C3*%
X105166252Y-98999415D02*
X104643748Y-98999415D01*
X105166252Y-97529415D02*
X104643748Y-97529415D01*
%TO.C,R5*%
X117340436Y-100069415D02*
X117794564Y-100069415D01*
X117340436Y-101539415D02*
X117794564Y-101539415D01*
D15*
%TO.C,C11*%
X131880100Y-95539415D02*
X133150100Y-95539415D01*
X132515100Y-94904415D02*
X132515100Y-96174415D01*
X139042900Y-95539415D02*
G75*
G03*
X139042900Y-95539415I-2882900J0D01*
G01*
D13*
%TO.C,R1*%
X71509564Y-132815000D02*
X71055436Y-132815000D01*
X71509564Y-131345000D02*
X71055436Y-131345000D01*
D15*
%TO.C,C7*%
X87099900Y-123479415D02*
X85829900Y-123479415D01*
X86464900Y-124114415D02*
X86464900Y-122844415D01*
X85702900Y-123479415D02*
G75*
G03*
X85702900Y-123479415I-2882900J0D01*
G01*
D13*
%TO.C,R4*%
X118240436Y-137984415D02*
X118694564Y-137984415D01*
X118240436Y-139454415D02*
X118694564Y-139454415D01*
D10*
%TO.C,U3*%
X115445000Y-124919415D02*
X115445000Y-125494415D01*
X115445000Y-124919415D02*
X121195000Y-124919415D01*
X115445000Y-125494415D02*
X113845000Y-125494415D01*
X115445000Y-135569415D02*
X115445000Y-134919415D01*
X115445000Y-135569415D02*
X121195000Y-135569415D01*
X121195000Y-124919415D02*
X121195000Y-125569415D01*
X121195000Y-135569415D02*
X121195000Y-134919415D01*
D16*
%TO.C,J9*%
X107235000Y-114489415D02*
X107235000Y-104489415D01*
X114735000Y-114489415D02*
X107235000Y-114489415D01*
X107235000Y-104489415D02*
X114735000Y-104489415D01*
X114735000Y-104489415D02*
X114735000Y-114489415D01*
D14*
X111335000Y-115089415D02*
G75*
G03*
X111335000Y-115089415I-100000J0D01*
G01*
D15*
%TO.C,16MHz1*%
X78740000Y-144537100D02*
X78740000Y-143267100D01*
X78105000Y-143902100D02*
X79375000Y-143902100D01*
X76713000Y-141113101D02*
X76713000Y-133406898D01*
X80767000Y-141113101D02*
X80767000Y-133406898D01*
X76713000Y-141113101D02*
G75*
G03*
X80767000Y-141113101I2027000J0D01*
G01*
X78740000Y-131379900D02*
G75*
G03*
X76713000Y-133406898I0J-2027000D01*
G01*
X80767001Y-133406898D02*
G75*
G03*
X78740000Y-131379899I-2027001J-2D01*
G01*
D13*
%TO.C,R18*%
X125685436Y-97344415D02*
X126139564Y-97344415D01*
X125685436Y-98814415D02*
X126139564Y-98814415D01*
D15*
%TO.C,C8*%
X80759300Y-119771015D02*
X79260700Y-119771015D01*
X80759300Y-117027815D02*
X79260700Y-117027815D01*
X80759300Y-119771015D02*
G75*
G03*
X80759300Y-117027815I0J1371600D01*
G01*
X77889100Y-118399415D02*
G75*
G03*
X79260700Y-119771015I1371600J0D01*
G01*
X79260700Y-117027815D02*
G75*
G03*
X77889100Y-118399415I0J-1371600D01*
G01*
D13*
%TO.C,R6*%
X118055436Y-97529415D02*
X118509564Y-97529415D01*
X118055436Y-98999415D02*
X118509564Y-98999415D01*
D15*
%TO.C,J13*%
X135483600Y-122047000D02*
X143916400Y-122047000D01*
X143916400Y-122047000D02*
X143916400Y-106553000D01*
X135483600Y-106553000D02*
X135483600Y-122047000D01*
X143916400Y-106553000D02*
X135483600Y-106553000D01*
D17*
X140081000Y-122682000D02*
G75*
G03*
X140081000Y-122682000I-381000J0D01*
G01*
D15*
%TO.C,U4*%
X91694000Y-109232555D02*
X91694000Y-109819305D01*
X91694000Y-111739525D02*
X91694000Y-112359305D01*
X91694000Y-114279525D02*
X91694000Y-114899305D01*
X91694000Y-116819525D02*
X91694000Y-117439305D01*
X91694000Y-119359525D02*
X91694000Y-119979305D01*
X91694000Y-121899525D02*
X91694000Y-122519305D01*
X91694000Y-124439525D02*
X91694000Y-125059305D01*
X91694000Y-126979525D02*
X91694000Y-127599305D01*
X91694000Y-129519525D02*
X91694000Y-130139305D01*
X91694000Y-132059525D02*
X91694000Y-132679305D01*
X91694000Y-134599525D02*
X91694000Y-135219305D01*
X91694000Y-137139525D02*
X91694000Y-137759305D01*
X91694000Y-139679525D02*
X91694000Y-140299305D01*
X91694000Y-142275415D02*
X99441000Y-142275415D01*
X99441000Y-107223415D02*
X91694000Y-107223415D01*
X99441000Y-109819305D02*
X99441000Y-109199525D01*
X99441000Y-112359305D02*
X99441000Y-111739525D01*
X99441000Y-114899305D02*
X99441000Y-114279525D01*
X99441000Y-117439305D02*
X99441000Y-116819525D01*
X99441000Y-119979305D02*
X99441000Y-119359525D01*
X99441000Y-122519305D02*
X99441000Y-121899525D01*
X99441000Y-125059305D02*
X99441000Y-124439525D01*
X99441000Y-127599305D02*
X99441000Y-126979525D01*
X99441000Y-130139305D02*
X99441000Y-129519525D01*
X99441000Y-132679305D02*
X99441000Y-132059525D01*
X99441000Y-135219305D02*
X99441000Y-134599525D01*
X99441000Y-137759305D02*
X99441000Y-137139525D01*
X99441000Y-140299305D02*
X99441000Y-139679525D01*
D13*
%TO.C,R19*%
X104825436Y-115124415D02*
X105279564Y-115124415D01*
X104825436Y-116594415D02*
X105279564Y-116594415D01*
D15*
%TO.C,J1*%
X105003600Y-152527000D02*
X113436400Y-152527000D01*
X113436400Y-152527000D02*
X113436400Y-131953000D01*
X105003600Y-131953000D02*
X105003600Y-152527000D01*
X113436400Y-131953000D02*
X105003600Y-131953000D01*
D17*
X109601000Y-153162000D02*
G75*
G03*
X109601000Y-153162000I-381000J0D01*
G01*
D16*
%TO.C,J2*%
X148068937Y-133679415D02*
G75*
G03*
X148068937Y-133679415I-328937J0D01*
G01*
X147090000Y-148549415D02*
X147090000Y-140289415D01*
X147090000Y-132049415D02*
X147090000Y-136419415D01*
X134890000Y-148549415D02*
X147090000Y-148549415D01*
X134890000Y-140289415D02*
X134890000Y-148549415D01*
X134890000Y-136419415D02*
X134890000Y-132049415D01*
X134890000Y-132049415D02*
X147090000Y-132049415D01*
D13*
%TO.C,R3*%
X105094564Y-96459415D02*
X104640436Y-96459415D01*
X105094564Y-94989415D02*
X104640436Y-94989415D01*
%TD*%
M02*
